<svg width="43" height="42" viewBox="0 0 43 42" fill="none" xmlns="http://www.w3.org/2000/svg">
<path d="M5.65141 5.25C4.06591 5.25 2.77441 6.5415 2.77441 8.127V16.8158C2.77441 18.4012 4.06591 19.6875 5.65141 19.6875H10.6494V22.9688H11.9619V19.6875H16.9599C18.5454 19.6875 19.8369 18.396 19.8369 16.8105V8.127C19.8369 6.5415 18.5454 5.25 16.9599 5.25H5.65141ZM5.65141 6.5625H16.9652C17.8262 6.5625 18.5297 7.266 18.5297 8.127V16.8158C18.529 17.2305 18.3639 17.628 18.0707 17.9213C17.7774 18.2145 17.3799 18.3796 16.9652 18.3802H5.65141C5.2367 18.3796 4.83916 18.2145 4.54591 17.9213C4.25266 17.628 4.08761 17.2305 4.08691 16.8158V8.127C4.08691 7.266 4.79041 6.5625 5.65141 6.5625ZM23.1182 7.875V9.1875H27.4599C28.3209 9.1875 29.0244 9.891 29.0244 10.752V15.0938H30.3369V10.752C30.3369 9.1665 29.0454 7.875 27.4599 7.875H23.1182ZM24.0264 18.375C22.4409 18.375 21.1494 19.6665 21.1494 21.252V29.9408C21.1494 31.5263 22.4409 32.8177 24.0264 32.8177H29.0244V36.099H30.3369V32.8177H35.3349C36.9204 32.8177 38.2119 31.5263 38.2119 29.9408V21.252C38.2119 19.6665 36.9204 18.375 35.3349 18.375H24.0264ZM24.0264 19.6875H35.3402C36.2012 19.6875 36.9047 20.391 36.9047 21.252V29.9355H36.8994C36.8987 30.3502 36.7337 30.7478 36.4404 31.041C36.1472 31.3343 35.7496 31.4993 35.3349 31.5H24.0264C23.6117 31.4993 23.2142 31.3343 22.9209 31.041C22.6277 30.7478 22.4626 30.3502 22.4619 29.9355V21.252C22.4619 20.391 23.1654 19.6875 24.0264 19.6875ZM7.36816 23.625V24.9375H15.2432V23.625H7.36816ZM10.6494 28.2188V35.1855C10.6494 36.771 11.9409 38.0625 13.5264 38.0625H23.1182V36.75H13.5264C13.1117 36.7493 12.7142 36.5843 12.4209 36.291C12.1277 35.9978 11.9626 35.6002 11.9619 35.1855V28.2188H10.6494ZM25.7432 36.75V38.0625H33.6182V36.75H25.7432Z" fill="#1F3485"/>
</svg>
