<svg width="43" height="42" viewBox="0 0 43 42" fill="none" xmlns="http://www.w3.org/2000/svg">
<g clip-path="url(#clip0_8764_535)">
<path d="M7.40065 9.81094C10.7541 6.49687 14.9213 4.515 18.5503 4.515C18.7538 4.515 18.9506 4.52813 19.1541 4.54125L16.3847 7.20562C16.2863 7.30406 16.2272 7.42875 16.2272 7.56656C16.2272 7.70437 16.2731 7.83563 16.3716 7.93406C16.47 8.0325 16.6013 8.09156 16.7391 8.09156C16.8703 8.09156 17.0016 8.03906 17.0935 7.94719L20.6503 4.52156C20.6635 4.50844 20.6635 4.49531 20.6766 4.48219C20.7028 4.44938 20.7291 4.41656 20.7488 4.37719C20.7619 4.3575 20.7685 4.33125 20.775 4.305C20.7816 4.28531 20.7947 4.26562 20.8013 4.23938C20.8013 4.22625 20.8013 4.21312 20.8013 4.19344C20.8013 4.18031 20.8078 4.16719 20.8078 4.15406C20.8078 4.13438 20.8013 4.11469 20.7947 4.095C20.7881 4.06219 20.7881 4.02938 20.775 3.99656C20.775 3.96375 20.7619 3.9375 20.7488 3.90469C20.7356 3.87187 20.716 3.84563 20.6963 3.81938C20.6897 3.80625 20.6831 3.79313 20.67 3.78L17.1131 0.144375C17.0147 0.0525 16.8835 0 16.7456 0C16.6078 0 16.4831 0.0525 16.3847 0.144375C16.1813 0.34125 16.1813 0.669375 16.3781 0.872813L18.9441 3.49781C18.8194 3.49125 18.6947 3.48469 18.5635 3.48469C14.6588 3.48469 10.2094 5.57812 6.67221 9.07594C2.24252 13.4663 0.109709 19.1494 0.975959 24.2747C1.01533 24.5241 1.2319 24.7013 1.48127 24.7013L1.56658 24.6947C1.84877 24.6488 2.03252 24.3797 1.98658 24.1041C1.18596 19.3069 3.20721 13.9584 7.40065 9.81094ZM41.4863 30.7322C41.4206 30.5156 41.2172 30.3647 40.9941 30.3647C40.9416 30.3647 40.8956 30.3713 40.8497 30.3844L37.2928 31.4409C39.3928 27.6216 39.9572 22.8966 38.8088 18.2503C37.4963 12.915 34.11 8.42625 29.5163 5.9325C29.4441 5.89313 29.3588 5.87344 29.2735 5.87344C29.0831 5.87344 28.9125 5.97844 28.8206 6.1425C28.755 6.26062 28.7419 6.405 28.7813 6.53625C28.8206 6.6675 28.906 6.77906 29.0306 6.84469C33.3685 9.20063 36.571 13.4531 37.8113 18.5063C38.8941 22.9031 38.3691 27.3656 36.3938 30.9553L35.5735 27.3066C35.521 27.0703 35.3175 26.9062 35.0747 26.9062C35.0353 26.9062 34.996 26.9128 34.9566 26.9194C34.681 26.9784 34.5038 27.2606 34.5694 27.5362L35.6719 32.4384C35.6785 32.4581 35.6916 32.4778 35.6981 32.4975C35.7113 32.5369 35.7244 32.5828 35.7506 32.6156C35.7638 32.6353 35.79 32.655 35.8097 32.6747C35.836 32.7009 35.8556 32.7337 35.8885 32.7534C35.895 32.76 35.9016 32.76 35.9081 32.76L35.9147 32.7666C35.9344 32.7797 35.9606 32.7863 35.9803 32.7928C36 32.7994 36.0131 32.8125 36.0328 32.8125C36.0788 32.8256 36.1247 32.8322 36.1706 32.8322C36.1706 32.8322 36.1706 32.8322 36.1772 32.8322C36.2297 32.8322 36.2756 32.8256 36.3216 32.8125L41.1516 31.3753C41.2828 31.3359 41.3944 31.2506 41.46 31.1259C41.5125 31.0012 41.5256 30.8634 41.4863 30.7322ZM31.0125 37.2947C30.8944 37.2947 30.7828 37.3341 30.691 37.4128C27.8691 39.7097 24.1744 40.9697 20.2894 40.9697C19.0819 40.9697 17.8481 40.8516 16.6341 40.6087C11.745 39.6506 7.55815 36.8353 4.95283 32.8125L8.50971 33.8297C8.55565 33.8428 8.60158 33.8494 8.64752 33.8494C8.87721 33.8494 9.08065 33.6984 9.14627 33.4753C9.22502 33.1997 9.06752 32.9175 8.7919 32.8387L3.98158 31.4672C3.93565 31.4541 3.88971 31.4475 3.84377 31.4475C3.75846 31.4475 3.67315 31.4672 3.5944 31.5131L3.58783 31.5197H3.58127C3.55502 31.5328 3.53533 31.5591 3.51565 31.5787C3.48283 31.5984 3.45002 31.6181 3.43033 31.6509C3.41721 31.6706 3.41065 31.6969 3.39752 31.7166C3.37783 31.7559 3.35815 31.7887 3.34502 31.8281C3.34502 31.8347 3.33846 31.8347 3.33846 31.8412L2.15065 36.7631C2.11783 36.8944 2.13752 37.0322 2.20971 37.1503C2.2819 37.2684 2.39346 37.3472 2.52471 37.38C2.56408 37.3866 2.60346 37.3931 2.6494 37.3931C2.88565 37.3931 3.09565 37.2291 3.14815 36.9994L4.04065 33.2981C6.79033 37.59 11.2397 40.5956 16.4372 41.6128C17.7169 41.8622 19.0097 41.9934 20.2894 41.9934C24.4106 41.9934 28.335 40.6481 31.3406 38.2069C31.4456 38.1216 31.5113 37.9969 31.531 37.8591C31.5441 37.7212 31.5047 37.59 31.4194 37.4784C31.3144 37.3669 31.1635 37.2947 31.0125 37.2947Z" fill="#1F3485"/>
<path d="M17.3632 23.8024C17.5732 23.8024 17.7373 23.6318 17.7373 23.4284V21.7418C17.7373 21.5252 17.5667 21.3612 17.3632 21.3612H16.6348C16.5167 20.9018 16.3329 20.4621 16.0901 20.0552L16.6086 19.5368C16.6676 19.4777 16.7201 19.353 16.7201 19.2677C16.7201 19.1824 16.6676 19.0577 16.6086 18.9987L15.4142 17.8109C15.2698 17.6599 15.0336 17.6599 14.8826 17.8109L14.3642 18.3227C13.9639 18.0799 13.5176 17.9027 13.0582 17.7846V17.0496C13.0582 16.8396 12.8876 16.6755 12.6842 16.6755H10.9911C10.7811 16.6755 10.617 16.8462 10.617 17.0496V17.7846C10.1576 17.9027 9.71137 18.0865 9.31105 18.3227L8.79262 17.8109C8.64168 17.6599 8.40543 17.6599 8.25449 17.8109L7.06668 18.9987C7.00762 19.0577 6.95512 19.1824 6.95512 19.2677C6.95512 19.353 7.00762 19.4777 7.06668 19.5368L7.58512 20.0552C7.33574 20.4621 7.15855 20.9018 7.04043 21.3612H6.29887C6.08887 21.3612 5.9248 21.5318 5.9248 21.7418V23.4284C5.9248 23.6384 6.09543 23.8024 6.29887 23.8024H7.0273C7.14543 24.2618 7.32918 24.708 7.57199 25.1149L7.06012 25.6268C6.98137 25.699 6.94199 25.7909 6.94199 25.8959C6.94199 25.9812 6.99449 26.1059 7.05356 26.1715L8.24137 27.3593C8.36605 27.4774 8.66137 27.4774 8.77949 27.3593L9.29793 26.8409C9.69824 27.0902 10.1445 27.2674 10.6039 27.3855V28.114C10.6039 28.324 10.7745 28.4946 10.9779 28.4946H12.6711C12.8811 28.4946 13.0451 28.3174 13.0451 28.114V27.3855C13.5045 27.2674 13.9507 27.0837 14.3511 26.8409L14.8695 27.3593C14.9876 27.4774 15.2829 27.4774 15.4011 27.3593L16.5954 26.1715C16.6676 26.0993 16.707 26.0009 16.707 25.8959C16.707 25.8105 16.6545 25.6859 16.5954 25.6268L16.077 25.1149C16.3264 24.708 16.5036 24.2618 16.6217 23.8024H17.3632ZM14.3182 22.5818C14.3182 23.9534 13.2092 25.0624 11.8376 25.0624C10.4661 25.0624 9.35699 23.9534 9.35699 22.5818C9.35699 21.2102 10.4661 20.1012 11.8376 20.1012C13.2092 20.1012 14.3182 21.2102 14.3182 22.5818ZM27.1807 12.8496C23.322 12.8496 20.1851 15.9865 20.1851 19.8452C20.1851 21.7287 20.9201 23.494 22.2589 24.813C22.2589 24.813 22.2654 24.813 22.2654 24.8196C22.2654 24.8262 22.272 24.8262 22.272 24.8327C22.4229 24.9574 22.5607 25.0887 22.692 25.2134L22.7117 25.233C23.4598 25.9484 23.8995 26.6309 24.0636 27.3134C23.4795 27.4774 23.0464 28.009 23.0464 28.6455C23.0464 29.3806 23.6304 29.9909 24.3589 30.0302V31.1918C24.3589 31.8087 24.8576 32.3074 25.4745 32.3074H28.8673C29.4842 32.3074 29.9829 31.8087 29.9829 31.1918V30.0237C30.7048 29.9843 31.2889 29.3806 31.2889 28.6455C31.2889 28.009 30.8623 27.4774 30.2782 27.3134C30.462 26.5127 31.0329 25.7252 32.0304 24.859C32.0436 24.8524 32.0501 24.8459 32.0632 24.8327C32.0698 24.8327 32.0698 24.8262 32.0698 24.8196L32.0764 24.813C33.4086 23.4874 34.1436 21.7221 34.1436 19.8452C34.1698 15.9865 31.0329 12.8496 27.1807 12.8496ZM28.8739 31.6709H25.4811C25.2186 31.6709 25.002 31.4543 25.002 31.1918V30.0302H29.3529V31.1918C29.3529 31.4609 29.1429 31.6709 28.8739 31.6709ZM31.6629 24.3471C31.6432 24.3602 31.6301 24.3799 31.617 24.3865C30.4751 25.384 29.8451 26.2962 29.6482 27.2609H24.7132C24.5361 26.4209 24.0307 25.6005 23.1711 24.7802C23.1579 24.7737 23.1448 24.7605 23.1317 24.7474C23.1251 24.7409 23.1251 24.7409 23.1186 24.7343C22.9939 24.6096 22.8561 24.4849 22.7182 24.3734L22.7117 24.3602L22.7051 24.3537C21.4976 23.1527 20.8282 21.5515 20.8282 19.8452C20.8282 16.3409 23.6764 13.4927 27.1807 13.4927C30.6851 13.4927 33.5332 16.3409 33.5332 19.8452C33.5332 21.5449 32.8704 23.1462 31.6629 24.3471Z" fill="#1F3485"/>
<path d="M30.9537 16.8195C30.5272 16.4389 30.0153 16.2814 29.51 16.3667C29.1162 15.8155 28.4337 15.4545 27.6725 15.4086C26.9506 15.3627 26.3009 15.6186 25.8678 16.078C24.9359 15.7892 23.7743 16.0714 23.1443 16.7605C22.7572 17.1805 22.6193 17.6924 22.7506 18.2239C21.6678 18.7424 21.3528 19.917 21.635 20.8358C21.9106 21.7414 22.7506 22.4961 24.0893 22.4961C24.3912 22.4961 24.7193 22.4502 25.0672 22.3649C25.1918 22.5092 25.3297 22.6405 25.4937 22.752C26.15 23.1852 27.1737 23.2902 28.1318 22.693C28.145 22.7455 28.1647 22.8045 28.1843 22.857C28.309 23.1327 28.5518 23.3427 28.8931 23.4608C29.3262 23.6642 29.6478 24.0186 29.7987 24.2155C29.8775 24.3205 29.9956 24.3795 30.1203 24.3927C30.14 24.3927 30.1597 24.3927 30.1728 24.3927C30.2843 24.3927 30.3893 24.3533 30.4747 24.2877L31.5509 23.4149C31.6493 23.3361 31.715 23.218 31.7281 23.0867C31.7412 22.9555 31.7018 22.8308 31.6231 22.7324L31.1047 22.1089C31.4065 21.9514 31.6559 21.6955 31.8134 21.3608C32.0956 20.7505 32.03 19.9958 31.6822 19.3724C31.7084 19.3002 31.7412 19.2411 31.7609 19.1624C31.925 18.3617 31.5968 17.3905 30.9537 16.8195ZM31.2228 21.0983C31.1243 21.3149 30.9143 21.5839 30.5075 21.6299C30.3893 21.643 30.2909 21.7217 30.245 21.8267C30.199 21.9383 30.2187 22.063 30.2975 22.1483L31.0193 23.0145L30.199 23.6839C29.9825 23.4345 29.6281 23.0867 29.1425 22.8636C28.9456 22.7914 28.8275 22.6995 28.775 22.588C28.7225 22.4633 28.7422 22.2927 28.834 22.063C28.8931 21.9186 28.8406 21.7545 28.7093 21.6758C28.5781 21.5905 28.4075 21.6102 28.3025 21.7217C27.4493 22.6142 26.4518 22.6142 25.8481 22.2139C25.3559 21.8924 24.9818 21.1902 25.4018 20.1992C25.474 20.0352 25.3953 19.8514 25.2312 19.7792C25.0672 19.707 24.8834 19.7858 24.8112 19.9499C24.5356 20.5995 24.5159 21.2427 24.7193 21.7808C23.2493 22.0564 22.4618 21.3739 22.2453 20.652C22.0287 19.9367 22.3043 19.018 23.2493 18.7095C23.3347 18.6833 23.4068 18.6177 23.4397 18.5389C23.479 18.4536 23.479 18.3617 23.4397 18.283C23.2625 17.8761 23.3215 17.5086 23.6103 17.1936C24.0762 16.6883 25.0147 16.4652 25.7103 16.6949C26.0909 16.8195 26.5634 17.1411 26.6422 17.9352C26.6618 18.1124 26.8128 18.237 26.99 18.2239C27.1672 18.2042 27.2918 18.0533 27.2787 17.8761C27.2131 17.2199 26.9309 16.708 26.465 16.3733C26.7603 16.1436 27.1737 16.0255 27.6265 16.0517C28.2631 16.0911 28.8209 16.4127 29.0768 16.8917C29.149 17.0295 29.3131 17.0952 29.464 17.0427C29.93 16.8852 30.2975 17.0952 30.5206 17.2986C30.9931 17.7186 31.2425 18.447 31.1178 19.0311C31.0193 19.4839 30.6978 19.812 30.199 19.9695C30.0284 20.022 29.9365 20.1992 29.989 20.3699C30.0284 20.5077 30.1597 20.593 30.2975 20.593C30.3303 20.593 30.3631 20.5864 30.3893 20.5799C30.7437 20.4683 31.039 20.2911 31.2687 20.0549C31.3737 20.4092 31.3672 20.7899 31.2228 21.0983Z" fill="#1F3485"/>
<path d="M24.3786 17.948C24.2014 17.9612 24.0767 18.1187 24.0898 18.2893C24.1029 18.4665 24.2604 18.5912 24.4311 18.5846C24.5295 18.578 25.3958 18.5452 25.5533 19.6543C25.5729 19.8118 25.7108 19.9299 25.8683 19.9299C25.8814 19.9299 25.9011 19.9299 25.9142 19.9233C26.0914 19.8971 26.2095 19.733 26.1833 19.5624C25.9929 18.1777 24.9233 17.9021 24.3786 17.948ZM27.4104 18.9783C27.2333 18.9849 27.102 19.1358 27.1086 19.313C27.1151 19.4902 27.2858 19.6215 27.4433 19.6149C27.5876 19.6083 28.0076 19.6412 28.2308 19.8643C28.3554 19.989 28.4079 20.1596 28.4014 20.3827C28.3948 20.5599 28.5326 20.7108 28.7098 20.7174C28.7164 20.7174 28.7164 20.7174 28.7229 20.7174C28.8936 20.7174 29.0379 20.5796 29.0445 20.409C29.0642 20.0021 28.9395 19.6543 28.6836 19.4049C28.2111 18.9521 27.4892 18.9783 27.4104 18.9783Z" fill="#1F3485"/>
</g>
<defs>
<clipPath id="clip0_8764_535">
<rect width="42" height="42" fill="white" transform="translate(0.149414)"/>
</clipPath>
</defs>
</svg>
