<svg width="72" height="73" viewBox="0 0 72 73" fill="none" xmlns="http://www.w3.org/2000/svg">
<g clip-path="url(#clip0_8764_546)">
<path d="M60.8062 27.0902C60.525 20.8689 55.3837 15.8964 49.0725 15.8964C47.79 15.8964 46.53 16.1102 45.3263 16.5152C42.8625 11.3514 37.665 8.04395 31.9163 8.04395C25.9538 8.04395 20.6775 11.5089 18.315 16.9427C17.4938 16.7177 16.6275 16.6052 15.75 16.6052C10.2038 16.6052 5.67 21.1164 5.67 26.6739C5.67 27.3377 5.74875 28.0014 5.88375 28.6539C2.23875 30.7464 0 34.6052 0 38.8239C0 45.2927 5.27625 50.5577 11.745 50.5577H12.78V59.9627H10.53C10.3612 59.9627 10.2037 60.0414 10.1025 60.1652C10.0012 60.3002 9.95625 60.4689 9.99 60.6152L10.2375 61.8977C10.6425 63.9452 12.3413 65.4414 14.265 65.4414H55.5187C57.4425 65.4414 59.1413 63.9452 59.5462 61.8977L59.7938 60.6152C59.8275 60.4577 59.7825 60.2889 59.6812 60.1652C59.5687 60.0414 59.4112 59.9627 59.2537 59.9627H57.0262V50.5577H60.2663C66.735 50.5577 72 45.2927 72 38.8239C72 32.5239 67.0275 27.3714 60.8062 27.0902ZM58.59 61.0652L58.4663 61.6727C58.1513 63.2139 56.925 64.3277 55.5187 64.3277H14.265C12.8588 64.3277 11.6325 63.2139 11.3287 61.6839L11.205 61.0652H27.405L27.9 62.7977C27.9675 63.0452 28.1925 63.1914 28.4288 63.1914H41.3213C41.5687 63.1914 41.7825 63.0339 41.85 62.7977L42.345 61.0652H58.59ZM55.9125 50.0177V59.9627H13.8825V32.4227C13.8825 31.4102 14.6475 30.6114 15.5813 30.6114H54.2137C55.1587 30.6114 55.9237 31.4214 55.9237 32.4227V49.9839C55.9125 49.9952 55.9013 49.9952 55.9125 50.0177C55.9125 50.0064 55.9013 50.0064 55.9125 50.0177ZM41.22 61.0652L40.9162 62.0889H28.8675L28.5637 61.0652H41.22ZM60.255 49.4439H57.015V32.4227C57.015 30.8027 55.755 29.4977 54.2025 29.4977H15.57C14.0175 29.4977 12.7688 30.8027 12.7688 32.4227V49.4439H11.7338C5.8725 49.4439 1.1025 44.6739 1.1025 38.8239C1.1025 34.8639 3.27375 31.2639 6.76125 29.4302C6.98625 29.3064 7.11 29.0477 7.0425 28.8002C6.8625 28.1027 6.76125 27.3827 6.76125 26.6739C6.76125 21.7239 10.7887 17.7077 15.7387 17.7077C16.695 17.7077 17.595 17.8539 18.4613 18.1239C18.7425 18.2139 19.035 18.0789 19.1475 17.7977C21.2175 12.5327 26.235 9.1352 31.905 9.1352C37.3838 9.1352 42.345 12.3864 44.5163 17.4152C44.64 17.6964 44.955 17.8202 45.2362 17.7189C46.4512 17.2352 47.745 16.9877 49.0725 16.9877C54.945 16.9877 59.7038 21.7464 59.7038 27.6189C59.7038 27.9227 59.9625 28.1702 60.255 28.1702C66.1275 28.1702 70.8862 32.9289 70.8862 38.8014C70.8975 44.6739 66.1275 49.4439 60.255 49.4439Z" fill="#4E5292"/>
<path d="M41.2197 61.0654L40.916 62.0892H28.8672L28.5635 61.0654H41.2197Z" fill="#D8DFE6"/>
<path d="M58.5901 61.0654L58.4663 61.6729C58.1513 63.2142 56.9251 64.3279 55.5188 64.3279H14.2651C12.8588 64.3279 11.6326 63.2142 11.3288 61.6842L11.2051 61.0654H27.4051L27.9001 62.7979C27.9676 63.0454 28.1926 63.1917 28.4288 63.1917H41.3213C41.5688 63.1917 41.7826 63.0342 41.8501 62.7979L42.3451 61.0654H58.5901Z" fill="#FFDB7C"/>
<path d="M57.4763 63.5071C56.9476 64.0246 56.2613 64.3396 55.5188 64.3396H14.2651C12.8588 64.3396 11.6326 63.2259 11.3288 61.6959L11.2051 61.0771H13.4101C13.7701 62.4946 14.9513 63.5184 16.2901 63.5184H57.4763V63.5071Z" fill="#E1BA62"/>
<path d="M58.2864 62.2917C58.0952 62.7642 57.8252 63.1804 57.4764 63.5067H16.2902C14.9514 63.5067 13.7814 62.4829 13.4102 61.0654H18.6077C19.1589 61.8192 20.0027 62.2804 20.9139 62.2804H27.7652L27.9114 62.7867C27.9789 63.0342 28.2039 63.1804 28.4402 63.1804H41.3327C41.5802 63.1804 41.7939 63.0229 41.8614 62.7867L41.9852 62.3592L42.0077 62.2804H58.2864V62.2917Z" fill="#F0CA6C"/>
<path d="M55.9123 32.4236C55.9123 31.4111 55.1473 30.6123 54.2023 30.6123H15.5698C14.6361 30.6123 13.8711 31.4223 13.8711 32.4236V59.9636H55.9123V50.0186C55.9123 50.0073 55.9011 50.0073 55.9011 50.0073C55.9011 49.9961 55.9123 49.9961 55.9123 49.9848V32.4236ZM32.3436 31.5686H37.4511C37.7548 31.5686 38.0023 31.8273 38.0023 32.1198C38.0023 32.4348 37.7436 32.6711 37.4511 32.6711H32.3436C32.0286 32.6711 31.7923 32.4236 31.7923 32.1198C31.7923 31.8273 32.0398 31.5686 32.3436 31.5686ZM54.2136 57.7361C54.2136 58.0511 53.9661 58.2873 53.6623 58.2873H16.1323C15.8173 58.2873 15.5811 58.0398 15.5811 57.7361V34.2123C15.5811 33.8973 15.8286 33.6611 16.1323 33.6611H53.6623C53.9774 33.6611 54.2136 33.9086 54.2136 34.2123V57.7361Z" fill="#FFDB7C"/>
<path d="M55.9124 51.7056V58.9168H16.4586C15.6374 58.9168 14.9736 58.2643 14.9736 57.4431V31.3768C14.9736 31.1293 15.0186 30.8931 15.1086 30.6793C15.2549 30.6231 15.4124 30.6006 15.5699 30.6006H22.1961V33.6493H16.1211C15.8061 33.6493 15.5699 33.8968 15.5699 34.2006V57.7243C15.5699 58.0393 15.8174 58.2756 16.1211 58.2756H53.6511C53.9661 58.2756 54.2024 58.0281 54.2024 57.7243V51.7056H55.9124Z" fill="#F0CA6C"/>
<path d="M55.9128 58.9172V59.9634H13.8828V32.4234C13.8828 31.5909 14.4003 30.8934 15.1091 30.6797C15.0191 30.8934 14.9741 31.1297 14.9741 31.3772V57.4434C14.9741 58.2647 15.6378 58.9172 16.4591 58.9172H55.9128Z" fill="#E1BA62"/>
<path d="M70.8975 38.8245C70.8975 44.6745 66.1388 49.4445 60.2663 49.4445H57.0263V32.4232C57.0263 30.8032 55.7663 29.4982 54.2138 29.4982H15.57C14.0175 29.4982 12.7688 30.8032 12.7688 32.4232V49.4445H11.7338C5.87254 49.4445 1.10254 44.6745 1.10254 38.8245C1.10254 34.8645 3.27379 31.2645 6.76129 29.4307C6.98629 29.307 7.11004 29.0482 7.04254 28.8007C6.86254 28.1032 6.76129 27.3832 6.76129 26.6745C6.76129 21.7245 10.7888 17.7082 15.7388 17.7082C16.695 17.7082 17.595 17.8545 18.4613 18.1245C18.7425 18.2145 19.035 18.0795 19.1475 17.7982C21.2175 12.5332 26.235 9.13574 31.905 9.13574C37.3838 9.13574 42.345 12.387 44.5163 17.4157C44.64 17.697 44.955 17.8207 45.2363 17.7195C46.4513 17.2357 47.745 16.9882 49.0725 16.9882C54.945 16.9882 59.7038 21.747 59.7038 27.6195C59.7038 27.9232 59.9625 28.1707 60.255 28.1707C66.1275 28.1932 70.8975 32.952 70.8975 38.8245Z" fill="#D8DFE6"/>
<path d="M42.7158 14.4115C40.342 12.544 37.3833 11.4752 34.2445 11.4752C28.5745 11.4752 23.557 14.8727 21.487 20.1377C21.3745 20.419 21.082 20.5427 20.8008 20.464C19.9345 20.1827 19.0233 20.0477 18.0783 20.0477C13.1395 20.0477 9.10078 24.0527 9.10078 29.014C9.10078 29.7227 9.20203 30.4427 9.38203 31.1402C9.44953 31.3877 9.32578 31.6465 9.10078 31.7702C5.61328 33.604 3.44203 37.204 3.44203 41.164C3.44203 43.504 4.20703 45.664 5.48953 47.4077C2.84578 45.484 1.11328 42.3452 1.11328 38.8352C1.11328 34.8752 3.28453 31.2752 6.77203 29.4415C6.99703 29.3177 7.12078 29.059 7.05328 28.8115C6.87328 28.114 6.77203 27.394 6.77203 26.6852C6.77203 21.7352 10.7995 17.719 15.7495 17.719C16.7058 17.719 17.6058 17.8652 18.472 18.1352C18.7533 18.2252 19.0458 18.0902 19.1583 17.809C21.2283 12.544 26.2458 9.14648 31.9158 9.14648C36.202 9.14648 40.162 11.149 42.7158 14.4115Z" fill="#B5C3CC"/>
<path d="M43.3241 15.2561C42.9979 15.2336 42.6829 15.2223 42.3454 15.2223C36.6754 15.2223 31.6579 18.6198 29.5879 23.8848C29.4754 24.1661 29.1829 24.2898 28.9016 24.2111C28.0354 23.9298 27.1241 23.7948 26.1791 23.7948C22.3766 23.7948 19.1141 26.1686 17.8204 29.5098H15.5816C14.0291 29.5098 12.7804 30.8148 12.7804 32.4348V39.9386C11.9816 41.4461 11.5541 43.1448 11.5541 44.9111C11.5541 46.5423 11.9141 48.0836 12.5891 49.4673H11.7566C9.41664 49.4673 7.24539 48.7023 5.50164 47.4198C4.19664 45.6536 3.43164 43.4936 3.43164 41.1536C3.43164 37.1936 5.60289 33.5936 9.09039 31.7598C9.31539 31.6361 9.43914 31.3773 9.37164 31.1298C9.19164 30.4323 9.09039 29.7123 9.09039 29.0036C9.09039 24.0536 13.1179 20.0373 18.0679 20.0373C19.0241 20.0373 19.9241 20.1836 20.7904 20.4536C21.0716 20.5436 21.3641 20.4086 21.4766 20.1273C23.5466 14.8623 28.5641 11.4648 34.2341 11.4648C37.3841 11.4648 40.3429 12.5336 42.7054 14.4011C42.9191 14.6823 43.1329 14.9636 43.3241 15.2561Z" fill="#CCD5DD"/>
<path d="M11.543 44.8993C11.543 43.1218 11.9705 41.4343 12.7692 39.9268V49.4555H12.5667C11.903 48.0605 11.543 46.5193 11.543 44.8993Z" fill="#D8DFE6"/>
<path d="M53.651 33.6494H16.1323C15.8173 33.6494 15.5811 33.8969 15.5811 34.2007V57.7244C15.5811 58.0394 15.8286 58.2757 16.1323 58.2757H53.6623C53.9773 58.2757 54.2135 58.0282 54.2135 57.7244V34.2119C54.2135 33.8969 53.966 33.6494 53.651 33.6494ZM53.0998 57.1844H16.6836V34.7632H53.0998V57.1844Z" fill="#4E5292"/>
<path d="M16.6836 34.7627V57.1839H53.0998V34.7627H16.6836ZM40.2073 49.7252C40.2073 51.5477 39.0148 53.1002 37.3611 53.6514C36.9898 53.7752 36.5848 53.8427 36.1686 53.8539H33.6936C32.9848 53.8539 32.3323 53.6739 31.7586 53.3702C30.4648 52.6727 29.5761 51.3114 29.5761 49.7364V46.0127C29.5761 45.4727 30.0148 45.0227 30.5661 45.0227H30.6111V43.3352C30.6111 42.2889 30.9823 41.2989 31.6911 40.5114C31.7473 40.4327 31.8148 40.3652 31.8823 40.2977C32.1298 40.0502 32.3773 39.8477 32.6698 39.6789C33.3336 39.2739 34.1098 39.0489 34.9086 39.0489C37.2823 39.0489 39.1948 40.9727 39.1948 43.3352V45.0227H39.2398C39.7798 45.0227 40.2298 45.4614 40.2298 46.0127V49.7252H40.2073Z" fill="#BBE0F6"/>
<path d="M38.0024 32.1196C38.0024 32.4346 37.7437 32.6709 37.4512 32.6709H32.3437C32.0287 32.6709 31.7924 32.4234 31.7924 32.1196C31.7924 31.8159 32.0399 31.5684 32.3437 31.5684H37.4512C37.7549 31.5684 38.0024 31.8271 38.0024 32.1196ZM39.2287 45.0121H39.1837V43.3246C39.1837 40.9621 37.2712 39.0384 34.8974 39.0384C33.7612 39.0384 32.6699 39.4771 31.8712 40.2871C31.0499 41.0971 30.6112 42.1771 30.6112 43.3246V45.0121H30.5662C30.0262 45.0121 29.5762 45.4509 29.5762 46.0021V49.7259C29.5762 51.9984 31.4212 53.8434 33.6937 53.8434H36.0899C38.3624 53.8434 40.2074 51.9984 40.2074 49.7259V46.0021C40.2074 45.4621 39.7687 45.0121 39.2287 45.0121ZM31.7137 43.3359C31.7137 42.4809 32.0512 41.6821 32.6474 41.0859C33.2437 40.4896 34.0424 40.1521 34.8974 40.1521C36.6524 40.1521 38.0812 41.5809 38.0812 43.3359V45.0234H31.7249V43.3359H31.7137ZM39.1049 49.7259C39.1049 51.3909 37.7549 52.7409 36.0899 52.7409H33.6937C32.0287 52.7409 30.6787 51.3909 30.6787 49.7259V46.1259H39.0937V49.7259H39.1049Z" fill="#4E5292"/>
<path d="M38.0701 43.3361V45.0236H31.7139V43.3361C31.7139 42.4811 32.0514 41.6823 32.6476 41.0861C33.2439 40.4898 34.0426 40.1523 34.8976 40.1523C36.6414 40.1523 38.0701 41.5811 38.0701 43.3361Z" fill="#BBE0F6"/>
<path d="M30.6787 46.126V49.726C30.6787 51.391 32.0287 52.741 33.6937 52.741H36.09C37.755 52.741 39.105 51.391 39.105 49.726V46.126H30.6787ZM35.4487 49.5347V50.4685C35.4487 50.7722 35.2012 51.0197 34.8975 51.0197C34.5825 51.0197 34.3462 50.761 34.3462 50.4685V49.5347C34.0312 49.3435 33.8175 49.0172 33.8175 48.6235C33.8175 48.0272 34.3012 47.5435 34.9087 47.5435C35.505 47.5435 35.9887 48.0272 35.9887 48.6235C35.9775 49.0172 35.7525 49.3547 35.4487 49.5347Z" fill="#EC9AAD"/>
<path d="M34.0654 52.741H33.7054C32.0404 52.741 30.6904 51.391 30.6904 49.726V46.126H31.9729V49.726C31.9729 51.391 32.9067 52.741 34.0654 52.741Z" fill="#D88B9E"/>
<path d="M39.1055 46.126V49.726C39.1055 51.391 37.7555 52.741 36.0905 52.741H35.7305C36.878 52.741 37.823 51.391 37.823 49.726V46.126H39.1055Z" fill="#F1B8C7"/>
<path d="M35.9774 48.623C35.9774 49.0055 35.7524 49.343 35.4486 49.5342V50.468C35.4486 50.7717 35.2011 51.0192 34.8974 51.0192C34.5824 51.0192 34.3461 50.7605 34.3461 50.468V49.5342C34.0311 49.343 33.8174 49.0167 33.8174 48.623C33.8174 48.0267 34.3011 47.543 34.9086 47.543C35.4936 47.543 35.9774 48.0267 35.9774 48.623Z" fill="#4E5292"/>
<path d="M22.7586 57.1725H16.6836V39.1162L22.7586 57.1725Z" fill="#A7D6E7"/>
<path d="M33.0412 57.1839H31.7812L24.2324 34.7627H25.4924L29.5649 46.8789V49.7252C29.5649 51.3002 30.4537 52.6614 31.7474 53.3589L33.0412 57.1839ZM31.0049 34.7627L32.6587 39.6789C32.3662 39.8477 32.1187 40.0502 31.8712 40.2977C31.8037 40.3652 31.7362 40.4327 31.6799 40.5114L29.7449 34.7627H31.0049ZM38.5424 57.1839H37.2824L36.1687 53.8539C36.5849 53.8427 36.9899 53.7752 37.3612 53.6514L38.5424 57.1839Z" fill="#A7D6E7"/>
</g>
<defs>
<clipPath id="clip0_8764_546">
<rect width="72" height="72" fill="white" transform="translate(0 0.743164)"/>
</clipPath>
</defs>
</svg>
