<svg width="72" height="73" viewBox="0 0 72 73" fill="none" xmlns="http://www.w3.org/2000/svg">
<path fill-rule="evenodd" clip-rule="evenodd" d="M64.7375 39.5004C64.9618 37.1973 64.9047 34.8755 64.5676 32.5862L68.1367 30.5832C67.662 28.141 66.9142 25.7598 65.9075 23.4847C64.9008 21.2117 63.6386 19.0607 62.1455 17.0731L58.2662 18.3713C56.7931 16.5873 55.1123 14.9857 53.2593 13.6005L54.3645 9.66501C52.3044 8.2732 50.0939 7.11799 47.775 6.22125C45.4568 5.32468 43.0442 4.69447 40.5837 4.34277L38.7607 8.00541C36.4561 7.78172 34.1329 7.83902 31.8422 8.17605L29.8514 4.63653C24.9567 5.59366 20.3438 7.65121 16.3615 10.6536L17.6272 14.471C15.8427 15.9441 14.2415 17.626 12.8579 19.4808L8.93681 18.3857C7.53389 20.4395 6.37436 22.6493 5.48153 24.9708C4.58496 27.2877 3.95522 29.6991 3.60449 32.1585L7.25777 33.9837C7.03716 36.2876 7.09615 38.6097 7.43345 40.8993L3.86585 42.9031C4.33739 45.3445 5.08274 47.725 6.08777 49.9994C7.09744 52.2728 8.36219 54.424 9.85769 56.4117L13.7277 55.1157C15.1999 56.9018 16.8828 58.5032 18.7396 59.885L17.6344 63.8184C19.6937 65.2131 21.9048 66.3691 24.2253 67.2643C26.543 68.162 28.9558 68.7918 31.4166 69.1413L33.2433 65.4787C35.5703 65.7048 37.8923 65.6414 40.156 65.3066L42.1483 68.8483C47.0439 67.8902 51.6584 65.8336 55.6439 62.8334L54.3731 59.0109C56.1594 57.5408 57.7606 55.8593 59.1417 54.0033L63.0599 55.0985C64.4644 53.0457 65.6258 50.8368 66.521 48.5162C67.4147 46.198 68.0439 43.7864 68.3966 41.327L64.7375 39.5004Z" fill="#7A809B"/>
<path fill-rule="evenodd" clip-rule="evenodd" d="M17.9945 48.319H19.9637V35.3706H29.2409V48.319H31.6356V39.0937H40.9121V48.319H43.3075V32.5827H52.5855V48.319H53.9794C54.0694 48.319 54.1558 48.3349 54.2393 48.3572C56.4483 44.9 57.6239 40.8837 57.6276 36.781C57.6478 24.8406 47.9811 15.1407 36.0406 15.1162C24.0987 15.0946 14.3995 24.7657 14.3722 36.6975C14.3591 40.8261 15.5333 44.8714 17.7547 48.3514C17.8318 48.332 17.911 48.319 17.9945 48.319ZM19.1782 50.3343C23.1346 55.2253 29.179 58.3573 35.9607 58.3681C42.7683 58.3825 48.8436 55.2454 52.8166 50.3343H19.1782Z" fill="white"/>
<path d="M43.307 32.583H52.5849V48.3193H43.307V32.583ZM31.6351 39.094H40.9115V48.3193H31.6351V39.094ZM19.9639 35.3708H29.2411V48.3193H19.9639V35.3708Z" fill="#111934"/>
<path d="M53.9792 50.335H17.9943C17.862 50.335 17.7309 50.3089 17.6086 50.2582C17.4863 50.2076 17.3752 50.1333 17.2816 50.0397C17.188 49.9461 17.1137 49.835 17.0631 49.7127C17.0124 49.5904 16.9863 49.4593 16.9863 49.327C16.9863 49.1946 17.0124 49.0635 17.0631 48.9412C17.1137 48.8189 17.188 48.7078 17.2816 48.6142C17.3752 48.5206 17.4863 48.4464 17.6086 48.3957C17.7309 48.345 17.862 48.319 17.9943 48.319H53.9792C54.1116 48.319 54.2427 48.345 54.365 48.3957C54.4872 48.4464 54.5984 48.5206 54.692 48.6142C54.7856 48.7078 54.8598 48.8189 54.9105 48.9412C54.9611 49.0635 54.9872 49.1946 54.9872 49.327C54.9872 49.4593 54.9611 49.5904 54.9105 49.7127C54.8598 49.835 54.7856 49.9461 54.692 50.0397C54.5984 50.1333 54.4872 50.2076 54.365 50.2582C54.2427 50.3089 54.1116 50.335 53.9792 50.335ZM48.0774 20.6364C47.9845 20.5419 47.8738 20.4666 47.7517 20.4149C47.6296 20.3633 47.4986 20.3363 47.366 20.3355L41.583 20.293H41.5758C41.3084 20.292 41.0517 20.3973 40.8619 20.5857C40.6722 20.774 40.5651 21.03 40.5642 21.2974C40.5632 21.5647 40.6685 21.8215 40.8569 22.0112C41.0452 22.2009 41.3012 22.308 41.5686 22.309L44.9569 22.3335L38.4963 28.5111C37.8325 28.0885 37.062 27.864 36.2751 27.8638C35.5764 27.8644 34.889 28.0409 34.2763 28.377C33.6637 28.7131 33.1455 29.1979 32.7694 29.7869L28.9419 28.4988C28.9419 28.4815 28.9441 28.465 28.9441 28.4477C28.9428 27.3429 28.5033 26.2836 27.722 25.5024C26.9408 24.7212 25.8816 24.2817 24.7767 24.2803C23.6721 24.2819 22.6131 24.7215 21.8322 25.5027C21.0512 26.2839 20.612 27.343 20.6108 28.4477C20.612 29.5523 21.0512 30.6113 21.8322 31.3924C22.6132 32.1736 23.6721 32.613 24.7767 32.6143C25.5229 32.6138 26.2552 32.4131 26.8973 32.033C27.5394 31.6529 28.0677 31.1075 28.4271 30.4536L32.1243 31.6978C32.1145 31.8082 32.1089 31.9189 32.1078 32.0297C32.1089 33.1345 32.5482 34.1937 33.3294 34.9749C34.1105 35.7562 35.1696 36.1957 36.2744 36.1971C37.3792 36.1957 38.4385 35.7562 39.2197 34.975C40.0009 34.1937 40.4404 33.1345 40.4418 32.0297C40.4418 31.2787 40.2394 30.5753 39.8902 29.9669L46.3292 23.8102L46.3004 27.0984C46.2993 27.2308 46.3242 27.3621 46.3738 27.4848C46.4234 27.6076 46.4967 27.7193 46.5895 27.8137C46.6823 27.9081 46.7928 27.9833 46.9147 28.035C47.0365 28.0867 47.1674 28.1139 47.2998 28.1151H47.3091C47.5748 28.1149 47.8298 28.0098 48.0184 27.8226C48.207 27.6355 48.3141 27.3814 48.3164 27.1157L48.3668 21.3521C48.3681 21.2196 48.3432 21.0882 48.2935 20.9654C48.2439 20.8425 48.1704 20.7307 48.0774 20.6364ZM24.7774 30.5983C24.2074 30.5976 23.6609 30.3707 23.2578 29.9675C22.8548 29.5644 22.6281 29.0178 22.6275 28.4477C22.6279 27.8775 22.8545 27.3307 23.2576 26.9274C23.6606 26.524 24.2072 26.2971 24.7774 26.2963C25.3478 26.2969 25.8947 26.5238 26.2981 26.9271C26.7014 27.3304 26.9282 27.8773 26.9288 28.4477C26.9282 29.018 26.7014 29.5648 26.298 29.968C25.8947 30.3713 25.3478 30.598 24.7774 30.5983ZM36.2751 34.1811C35.7048 34.1805 35.158 33.9536 34.7548 33.5503C34.3516 33.1469 34.1249 32.6 34.1245 32.0297C34.1252 31.4596 34.3521 30.9131 34.7553 30.5101C35.1585 30.107 35.705 29.8803 36.2751 29.8798C36.8453 29.8802 37.3921 30.1067 37.7954 30.5098C38.1988 30.9129 38.4257 31.4595 38.4265 32.0297C38.4259 32.6001 38.1991 33.147 37.7957 33.5503C37.3924 33.9536 36.8455 34.1805 36.2751 34.1811Z" fill="#1F3485"/>
</svg>
