<svg width="72" height="73" viewBox="0 0 72 73" fill="none" xmlns="http://www.w3.org/2000/svg">
<path d="M64.9338 8.51248V61.4086C64.9338 61.7179 64.9127 62.0203 64.8705 62.3226C64.8986 62.1328 64.9197 61.95 64.9479 61.7601C64.8705 62.2945 64.7299 62.8078 64.526 63.307L64.7369 62.8008C64.5822 63.1593 64.4064 63.4968 64.1885 63.8203C64.1322 63.9117 64.0689 63.9961 64.0057 64.0875C63.8088 64.3687 64.3502 63.6797 64.1111 63.9539C63.9916 64.0945 63.8721 64.2351 63.7385 64.3617C63.6119 64.4953 63.4713 64.6148 63.3307 64.7343C63.1971 64.8468 62.9229 64.9945 63.4713 64.6359C63.3939 64.6851 63.3236 64.7414 63.2463 64.7976C62.9158 65.0226 62.5643 65.2125 62.1916 65.3742L62.6979 65.1633C62.1986 65.3672 61.6854 65.5078 61.151 65.5851C61.3408 65.557 61.5236 65.5359 61.7135 65.5078C61.165 65.5781 60.6166 65.5781 60.0611 65.5078C60.251 65.5359 60.4338 65.557 60.6236 65.5851C60.0963 65.5078 59.583 65.3742 59.0838 65.1703L59.59 65.3812C59.2385 65.2336 58.8939 65.0508 58.5775 64.8398C58.4861 64.7836 58.4018 64.7203 58.3174 64.657C58.0361 64.4601 58.7322 65.0015 58.458 64.7625C58.3174 64.6429 58.1838 64.5234 58.0502 64.3969C57.9236 64.2703 57.7971 64.1367 57.6775 63.9961C57.565 63.8625 57.4244 63.5953 57.783 64.1367C57.7338 64.0593 57.6775 63.989 57.6213 63.9117C57.3963 63.5812 57.2064 63.2297 57.0518 62.864L57.2627 63.3703C57.0588 62.8781 56.9182 62.3648 56.8338 61.8375C56.8619 62.0273 56.883 62.2101 56.9111 62.4C56.8338 61.8164 56.8479 61.2328 56.8479 60.6422V49.35C56.8338 47.2125 55.4908 45.3773 53.4729 44.6953C52.5518 44.3859 51.476 44.4703 50.5127 44.4703H20.0674C19.1744 44.4703 18.2744 44.4562 17.3814 44.4703H17.2619L19.3713 46.5797V13.0336C19.3713 11.5359 19.3643 10.0383 19.3713 8.54763C19.3713 8.40701 19.3783 8.26638 19.3994 8.11873C19.3713 8.30857 19.3502 8.49138 19.3221 8.68123C19.3572 8.46326 19.4135 8.25935 19.4908 8.05545L19.2799 8.5617C19.3432 8.40701 19.4275 8.26638 19.5119 8.11873C19.7018 7.78123 19.3854 8.30857 19.3713 8.28748C19.3643 8.28045 19.5471 8.09763 19.5541 8.08357C19.6104 8.02732 19.6666 7.98513 19.7229 7.92888C19.8916 7.76013 19.2729 8.23123 19.5471 8.06951C19.7088 7.9781 19.8564 7.8867 20.0322 7.81638L19.526 8.02732C19.7299 7.94998 19.9338 7.89373 20.1518 7.85857C19.9619 7.8867 19.7791 7.90779 19.5893 7.93591C20.0814 7.87263 20.6018 7.90779 21.101 7.90779H59.0064C60.7643 7.90779 62.5291 7.90076 64.2939 7.90779C64.4416 7.90779 64.5822 7.91482 64.7299 7.93591C64.54 7.90779 64.3572 7.8867 64.1674 7.85857C64.3853 7.89373 64.5893 7.94998 64.7932 8.02732L64.2869 7.81638C64.4416 7.87966 64.5822 7.96404 64.7299 8.04841C65.0674 8.23826 64.54 7.92185 64.5611 7.90779C64.5682 7.90076 64.751 8.08357 64.765 8.0906C64.8213 8.14685 64.8635 8.2031 64.9197 8.25935C65.0885 8.4281 64.6174 7.80935 64.7791 8.08357C64.8705 8.24529 64.9619 8.39295 65.0322 8.56873L64.8213 8.06248C64.8986 8.26638 64.9549 8.47029 64.99 8.68826C64.9619 8.49841 64.9408 8.3156 64.9127 8.12576C64.9197 8.25935 64.9338 8.38591 64.9338 8.51248C64.9549 9.61638 65.89 10.6711 67.0432 10.6219C68.1682 10.5726 69.1736 9.69373 69.1525 8.51248C69.1174 6.31873 67.5846 4.23748 65.3697 3.8156C64.9479 3.73123 64.54 3.69607 64.1111 3.69607H21.0658C20.6369 3.69607 20.201 3.67498 19.7721 3.7031C18.5768 3.78748 17.501 4.22341 16.6221 5.04607C15.7502 5.8617 15.3002 6.9656 15.1736 8.13279C15.1455 8.35779 15.1455 8.57576 15.1455 8.79373V46.5937C15.1455 47.7328 16.1088 48.7031 17.2549 48.7031H47.89C49.2541 48.7031 50.6182 48.689 51.9822 48.7031C52.1229 48.7031 52.2635 48.7101 52.4041 48.7312C52.2143 48.7031 52.0314 48.682 51.8416 48.6539C52.0596 48.689 52.2635 48.7453 52.4674 48.8226L51.9611 48.6117C52.1158 48.675 52.2564 48.7593 52.4041 48.8437C52.7416 49.0336 52.2143 48.7172 52.2354 48.7031C52.2424 48.6961 52.4252 48.8789 52.4393 48.8859C52.4955 48.9422 52.5377 48.9984 52.5939 49.0547C52.7627 49.2234 52.2916 48.6047 52.4533 48.8789C52.5447 49.0406 52.6361 49.1883 52.7064 49.364L52.4955 48.8578C52.5728 49.0617 52.6291 49.2656 52.6643 49.4836C52.6361 49.2937 52.615 49.1109 52.5869 48.9211C52.6994 49.8492 52.615 50.8265 52.615 51.7547V61.1343C52.615 61.7883 52.6643 62.4211 52.7627 63.0679C53.0018 64.5586 53.7541 65.9367 54.7385 67.0687C56.7775 69.4101 60.2299 70.3664 63.19 69.4734C66.108 68.5945 68.5057 66.0351 68.9908 62.9976C69.2018 61.6828 69.1385 60.3539 69.1385 59.032V8.53357C69.1385 7.42966 68.1682 6.37498 67.0291 6.4242C65.8971 6.45232 64.9338 7.33123 64.9338 8.51248Z" fill="#111934"/>
<path d="M28.09 21.274H52.7557C53.8947 21.274 55.0338 21.2951 56.1658 21.274H56.215C57.3189 21.274 58.3736 20.3037 58.3244 19.1646C58.2752 18.0186 57.3963 17.0553 56.215 17.0553H31.5494C30.4104 17.0553 29.2713 17.0342 28.1393 17.0553H28.09C26.9861 17.0553 25.9314 18.0256 25.9807 19.1646C26.0299 20.3107 26.9088 21.274 28.09 21.274ZM56.215 30.7662H31.5494C30.4104 30.7662 29.2713 30.7451 28.1393 30.7662H28.09C26.9861 30.7662 25.9314 31.7365 25.9807 32.8756C26.0299 34.0217 26.9088 34.985 28.09 34.985H52.7557C53.8947 34.985 55.0338 35.0061 56.1658 34.985H56.215C57.3189 34.985 58.3736 34.0146 58.3244 32.8756C58.2752 31.7295 57.3963 30.7662 56.215 30.7662ZM60.8908 65.5709H11.1447C10.8424 65.5709 10.54 65.5498 10.2377 65.5076C10.4275 65.5357 10.6104 65.5568 10.8002 65.585C10.2658 65.5076 9.75254 65.36 9.26035 65.1561L9.7666 65.367C9.4291 65.2193 9.09863 65.0436 8.78926 64.8396C8.71191 64.7904 8.6416 64.7342 8.56426 64.685C8.26191 64.4811 8.95801 65.0154 8.69785 64.7904C8.5502 64.6568 8.39551 64.5303 8.25488 64.3897C8.12129 64.2561 8.00879 64.1225 7.88223 63.9818C7.60098 63.6654 8.10723 64.3053 7.9877 64.1225C7.93848 64.0451 7.88223 63.9748 7.82598 63.8975C7.60801 63.574 7.4252 63.2365 7.27754 62.885L7.48848 63.3912C7.27754 62.892 7.13691 62.3787 7.05957 61.8514C7.0877 62.0412 7.10879 62.224 7.13691 62.4139C7.05254 61.8092 7.07363 61.1975 7.07363 60.5928V50.7771C7.07363 50.1654 7.02441 49.5326 7.10176 48.9209C7.07363 49.1107 7.05254 49.2936 7.02441 49.4834C7.05957 49.2654 7.11582 49.0615 7.19316 48.8576L6.98223 49.3639C7.04551 49.2092 7.12988 49.0686 7.21426 48.9209C7.4041 48.5834 7.0877 49.1107 7.07363 49.0896C7.0666 49.0826 7.24941 48.8998 7.25644 48.8857C7.3127 48.8295 7.36895 48.7873 7.4252 48.7311C7.59395 48.5623 6.97519 49.0334 7.24941 48.8717C7.41113 48.7803 7.55879 48.6889 7.73457 48.6186L7.22832 48.8295C7.43223 48.7521 7.63613 48.6959 7.8541 48.6607C7.66426 48.6889 7.48144 48.71 7.2916 48.7381C7.78379 48.6748 8.3041 48.71 8.80332 48.71H46.7088C48.4666 48.71 50.2314 48.7029 51.9963 48.71C52.1439 48.71 52.2846 48.717 52.4322 48.7381C52.2424 48.71 52.0596 48.6889 51.8697 48.6607C52.0877 48.6959 52.2916 48.7521 52.4955 48.8295L51.9893 48.6186C52.1439 48.6818 52.2846 48.7662 52.4322 48.8506C52.7697 49.0404 52.2424 48.724 52.2635 48.71C52.2705 48.7029 52.4533 48.8857 52.4674 48.8928C52.5236 48.949 52.5658 49.0053 52.6221 49.0615C52.7908 49.2303 52.3197 48.6115 52.4814 48.8857C52.5729 49.0475 52.6643 49.1951 52.7346 49.3709L52.5236 48.8647C52.601 49.0686 52.6572 49.2725 52.6924 49.4904C52.6643 49.3006 52.6432 49.1178 52.615 48.9279C52.7135 49.7436 52.6432 50.6014 52.6432 51.424V60.5365C52.6432 61.8936 52.6853 63.2436 53.2127 64.5162C53.8807 66.1334 54.9213 67.4482 56.3768 68.4397C57.6916 69.3396 59.3228 69.7826 60.9119 69.7967C62.0158 69.8037 63.0705 68.8193 63.0213 67.6873C62.951 66.5271 62.0721 65.5779 60.8908 65.5709C60.5955 65.5709 60.3072 65.5498 60.0189 65.5076C60.2088 65.5357 60.3916 65.5568 60.5814 65.585C60.0471 65.5076 59.5338 65.36 59.0416 65.1561L59.5479 65.367C59.2104 65.2193 58.8799 65.0436 58.5705 64.8396C58.4932 64.7904 58.4228 64.7342 58.3455 64.685C58.0432 64.4811 58.7393 65.0154 58.4791 64.7904C58.3314 64.6568 58.1768 64.5303 58.0361 64.3897C57.9025 64.2561 57.79 64.1225 57.6635 63.9818C57.3822 63.6654 57.8885 64.3053 57.7689 64.1225C57.7197 64.0451 57.6635 63.9748 57.6072 63.8975C57.3893 63.574 57.2064 63.2365 57.0588 62.885L57.2697 63.3912C57.0588 62.892 56.9182 62.3787 56.8408 61.8514C56.8689 62.0412 56.89 62.224 56.9182 62.4139C56.8127 61.6123 56.8549 60.7756 56.8549 59.974V55.7764C56.8549 53.6178 56.883 51.4662 56.8549 49.3076C56.8127 46.6428 54.6682 44.5264 52.0103 44.4912C51.708 44.4842 51.4127 44.4912 51.1104 44.4912H8.15645C7.57285 44.4912 7.01738 44.5053 6.44082 44.6459C4.83066 45.0467 3.58613 46.3193 3.06582 47.8662C2.88301 48.4146 2.84082 49.0053 2.84082 49.5748V61.535C2.84785 62.8498 3.16426 64.0943 3.73379 65.2756C4.80957 67.5115 7.11582 69.2553 9.56973 69.649C10.2166 69.7545 10.8494 69.8037 11.5033 69.8037H60.8908C61.9947 69.8037 63.0494 68.8334 63.0002 67.6943C62.951 66.5342 62.0721 65.5709 60.8908 65.5709Z" fill="#111934"/>
</svg>
