<svg width="72" height="73" viewBox="0 0 72 73" fill="none" xmlns="http://www.w3.org/2000/svg">
<path d="M52.65 70.2006H19.35C18.7425 70.2006 18.2588 69.7169 18.2588 69.1094V62.7419C18.2588 55.1594 24.1875 48.9156 31.7588 48.5331C32.1413 48.5106 32.5013 48.6906 32.715 48.9944L36 53.6856L39.2738 48.9944C39.4763 48.7019 39.8138 48.5331 40.1625 48.5331C47.8013 48.9156 53.73 55.1594 53.73 62.7419V69.1094C53.7413 69.7169 53.2463 70.2006 52.65 70.2006ZM20.4413 68.0181H51.5475V62.7306C51.5475 56.5094 46.8338 51.3456 40.7025 50.7494L36.8888 56.2169C36.6863 56.5094 36.3488 56.6781 36 56.6781C35.8255 56.6797 35.6532 56.6384 35.4983 56.558C35.3434 56.4776 35.2105 56.3605 35.1113 56.2169L31.2975 50.7494C25.1888 51.3344 20.4525 56.4981 20.4525 62.7306V68.0181H20.4413Z" fill="#111934"/>
<path d="M46.7212 70.2005H46.665C46.3774 70.1831 46.1084 70.0527 45.9167 69.8378C45.7249 69.6228 45.6259 69.3407 45.6413 69.0531L46.0013 62.5168C46.0187 62.2283 46.1487 61.9582 46.3633 61.7646C46.5779 61.571 46.86 61.4695 47.1488 61.4818C47.745 61.5155 48.2062 62.033 48.1725 62.6293L47.8125 69.1656C47.7788 69.7505 47.295 70.2005 46.7212 70.2005ZM25.2787 70.2005C24.705 70.2005 24.2213 69.7505 24.1875 69.1656L23.8275 62.6293C23.7938 62.0218 24.255 61.5155 24.8512 61.4818C25.4475 61.448 25.965 61.9093 25.9988 62.5168L26.3587 69.0531C26.3741 69.3407 26.2751 69.6228 26.0833 69.8378C25.8916 70.0527 25.6226 70.1831 25.335 70.2005H25.2787ZM36 48.308C30.9713 48.308 26.8762 44.213 26.8762 39.1843C26.8762 34.1555 30.9713 30.0605 36 30.0605C41.0288 30.0605 45.1237 34.1555 45.1237 39.1843C45.1237 44.213 41.0288 48.308 36 48.308ZM36 32.243C34.16 32.246 32.3962 32.9783 31.0951 34.2794C29.794 35.5805 29.0617 37.3443 29.0588 39.1843C29.0588 43.0093 32.175 46.1255 36 46.1255C39.825 46.1255 42.9412 43.0093 42.9412 39.1843C42.9412 35.3593 39.825 32.243 36 32.243ZM19.3612 70.2005H1.09125C0.48375 70.2005 0 69.7168 0 69.1093V63.968C0 57.7355 4.8825 52.6055 11.1038 52.2905C11.4975 52.268 11.835 52.448 12.0487 52.7518L14.535 56.2955L17.01 52.7631C17.2125 52.4705 17.55 52.3018 17.8988 52.3018C19.6425 52.3806 21.24 52.8193 22.7362 53.5843C23.2762 53.8655 23.4787 54.518 23.2087 55.058C22.9275 55.598 22.275 55.8005 21.735 55.5305C20.7086 54.9935 19.5905 54.6539 18.4387 54.5293L15.435 58.838C15.2325 59.1305 14.895 59.2993 14.5463 59.2993C14.3717 59.3008 14.1994 59.2596 14.0445 59.1792C13.8896 59.0988 13.7567 58.9817 13.6575 58.838L10.62 54.518C5.83875 55.058 2.1825 59.0968 2.1825 63.968V68.018H19.3612C19.9687 68.018 20.4525 68.5018 20.4525 69.1093C20.4525 69.7168 19.9687 70.2005 19.3612 70.2005Z" fill="#111934"/>
<path d="M5.88335 70.2011C5.3096 70.2011 4.82585 69.7511 4.7921 69.1661L4.4996 63.9011C4.48423 63.6134 4.58323 63.3313 4.77501 63.1164C4.96679 62.9014 5.2358 62.771 5.52335 62.7536C6.1196 62.7086 6.6371 63.1811 6.67085 63.7886L6.96335 69.0648C6.97873 69.3525 6.87973 69.6346 6.68795 69.8496C6.49616 70.0645 6.22716 70.1949 5.9396 70.2123C5.9171 70.2011 5.8946 70.2011 5.88335 70.2011ZM14.5346 52.0773C12.5812 52.0744 10.7087 51.2971 9.3274 49.9158C7.94613 48.5345 7.16883 46.662 7.16585 44.7086C7.16883 42.7552 7.94613 40.8827 9.3274 39.5014C10.7087 38.1201 12.5812 37.3428 14.5346 37.3398C16.488 37.3428 18.3605 38.1201 19.7418 39.5014C21.1231 40.8827 21.9004 42.7552 21.9034 44.7086C21.9004 46.662 21.1231 48.5345 19.7418 49.9158C18.3605 51.2971 16.488 52.0744 14.5346 52.0773ZM14.5346 39.5111C11.6771 39.5111 9.34835 41.8398 9.34835 44.6973C9.34835 47.5548 11.6771 49.8836 14.5346 49.8836C17.3921 49.8836 19.7209 47.5548 19.7209 44.6973C19.7209 41.8398 17.3921 39.5111 14.5346 39.5111ZM70.9084 70.2011H52.6384C52.0309 70.2011 51.5471 69.7173 51.5471 69.1098C51.5471 68.5023 52.0309 68.0186 52.6384 68.0186H69.8171V63.9686C69.8171 61.5048 68.8834 59.1761 67.1846 57.3986C65.6428 55.7873 63.5845 54.7681 61.3684 54.5186L58.3534 58.8273C58.1509 59.1198 57.8134 59.2886 57.4646 59.2886C57.2901 59.2901 57.1178 59.2489 56.9629 59.1685C56.8079 59.0881 56.6751 58.971 56.5759 58.8273L53.5609 54.5186C52.4246 54.6423 51.3109 54.9798 50.2646 55.5198C50.137 55.5863 49.9974 55.6268 49.854 55.639C49.7106 55.6512 49.5662 55.6349 49.4292 55.5909C49.2921 55.547 49.1652 55.4763 49.0556 55.383C48.946 55.2897 48.8561 55.1756 48.7909 55.0473C48.7244 54.9197 48.6839 54.7801 48.6717 54.6368C48.6595 54.4934 48.6758 54.349 48.7198 54.2119C48.7637 54.0749 48.8344 53.9479 48.9277 53.8384C49.021 53.7288 49.1351 53.6388 49.2634 53.5736C50.7596 52.7973 52.3571 52.3698 54.0334 52.2911C54.4159 52.2798 54.7759 52.4486 54.9896 52.7523L57.4646 56.2961L59.9509 52.7523C60.1646 52.4486 60.5021 52.2686 60.8959 52.2911C63.8884 52.4373 66.6784 53.7198 68.7596 55.8911C70.8521 58.0848 71.9996 60.9536 71.9996 63.9686V69.1098C71.9996 69.7173 71.5159 70.2011 70.9084 70.2011Z" fill="#111934"/>
<path d="M66.1166 70.2004H66.0603C65.7728 70.183 65.5038 70.0526 65.312 69.8376C65.1202 69.6227 65.0212 69.3406 65.0366 69.0529L65.3291 63.7767C65.3628 63.1804 65.8803 62.7079 66.4766 62.7417C67.0841 62.7754 67.5341 63.2929 67.5003 63.8892L67.2078 69.1654C67.1741 69.7504 66.7016 70.2004 66.1166 70.2004ZM57.4766 52.0767C55.5232 52.0737 53.6506 51.2964 52.2694 49.9151C50.8881 48.5339 50.1108 46.6613 50.1078 44.7079C50.1108 42.7545 50.8881 40.882 52.2694 39.5007C53.6506 38.1195 55.5232 37.3422 57.4766 37.3392C59.43 37.3422 61.3025 38.1195 62.6838 39.5007C64.065 40.882 64.8423 42.7545 64.8453 44.7079C64.8423 46.6613 64.065 48.5339 62.6838 49.9151C61.3025 51.2964 59.43 52.0737 57.4766 52.0767ZM57.4766 39.5104C54.6191 39.5104 52.2903 41.8392 52.2903 44.6967C52.2903 47.5542 54.6191 49.8829 57.4766 49.8829C60.3341 49.8829 62.6628 47.5542 62.6628 44.6967C62.6628 41.8392 60.3341 39.5104 57.4766 39.5104ZM37.3166 21.0717C35.5503 21.0717 34.1103 19.6317 34.1103 17.8654C34.1103 16.0992 35.5503 14.6592 37.3166 14.6592C39.0828 14.6592 40.5228 16.0992 40.5228 17.8654C40.5228 19.6317 39.0828 21.0717 37.3166 21.0717ZM37.3166 16.8304C36.7541 16.8304 36.2928 17.2917 36.2928 17.8542C36.2928 18.4167 36.7541 18.8779 37.3166 18.8779C37.8791 18.8779 38.3403 18.4167 38.3403 17.8542C38.3403 17.2917 37.8791 16.8304 37.3166 16.8304ZM29.3066 21.0717C27.5403 21.0717 26.1003 19.6317 26.1003 17.8654C26.1003 16.0992 27.5403 14.6592 29.3066 14.6592C31.0728 14.6592 32.5128 16.0992 32.5128 17.8654C32.514 18.2868 32.4319 18.7043 32.2712 19.0938C32.1105 19.4833 31.8743 19.8373 31.5764 20.1352C31.2784 20.4332 30.9245 20.6693 30.5349 20.83C30.1454 20.9907 29.7279 21.0729 29.3066 21.0717ZM29.3066 16.8304C28.7441 16.8304 28.2828 17.2917 28.2828 17.8542C28.2828 18.4167 28.7441 18.8779 29.3066 18.8779C29.8691 18.8779 30.3303 18.4167 30.3303 17.8542C30.3318 17.7193 30.3064 17.5855 30.2555 17.4606C30.2045 17.3357 30.1292 17.2223 30.0338 17.1269C29.9385 17.0316 29.825 16.9562 29.7001 16.9053C29.5752 16.8544 29.4414 16.8289 29.3066 16.8304ZM21.3078 21.0717C19.5416 21.0717 18.1016 19.6317 18.1016 17.8654C18.1016 16.0992 19.5416 14.6592 21.3078 14.6592C23.0741 14.6592 24.5141 16.0992 24.5141 17.8654C24.5141 19.6317 23.0741 21.0717 21.3078 21.0717ZM21.3078 16.8304C20.7453 16.8304 20.2841 17.2917 20.2841 17.8542C20.2841 18.4167 20.7453 18.8779 21.3078 18.8779C21.8703 18.8779 22.3316 18.4167 22.3316 17.8542C22.3316 17.2917 21.8703 16.8304 21.3078 16.8304Z" fill="#111934"/>
<path d="M17.9096 33.2668C17.7408 33.2668 17.5721 33.2218 17.4146 33.143C17.2332 33.0465 17.0818 32.9021 16.9767 32.7256C16.8716 32.5491 16.8168 32.3472 16.8183 32.1418L16.9083 28.6993C15.8843 28.58 14.9397 28.0893 14.2533 27.32C13.567 26.5508 13.1867 25.5565 13.1846 24.5255V11.1943C13.1846 8.8768 15.0746 6.99805 17.3808 6.99805H41.2196C43.5371 6.99805 45.4158 8.88805 45.4158 11.1943V24.5255C45.4158 26.843 43.5258 28.7218 41.2196 28.7218H24.2771L18.5621 33.0418C18.3746 33.1854 18.1457 33.2644 17.9096 33.2668ZM17.3921 9.1693C16.2783 9.1693 15.3671 10.0805 15.3671 11.1943V24.5255C15.3671 25.6393 16.2783 26.5505 17.3921 26.5505H18.0333C18.3258 26.5505 18.6071 26.6743 18.8208 26.8768C19.0233 27.0905 19.1358 27.3718 19.1246 27.6643L19.0683 29.9368L23.2646 26.7643C23.4558 26.618 23.6808 26.5393 23.9171 26.5393H41.2308C42.3446 26.5393 43.2558 25.628 43.2558 24.5143V11.1943C43.2558 10.0805 42.3446 9.1693 41.2308 9.1693H17.3921Z" fill="#111934"/>
<path d="M54.0903 29.5549C53.854 29.5549 53.629 29.4761 53.4378 29.3299L47.7115 25.0211H44.3365C43.729 25.0211 43.2453 24.5374 43.2453 23.9299C43.2453 23.3224 43.729 22.8386 44.3365 22.8386H48.0715C48.3078 22.8386 48.544 22.9174 48.724 23.0636L52.9203 26.2249L52.8753 23.9636C52.8698 23.8186 52.8939 23.674 52.9461 23.5386C52.9983 23.4032 53.0776 23.2799 53.179 23.1761C53.2809 23.0706 53.4034 22.9872 53.5388 22.9311C53.6743 22.875 53.8199 22.8473 53.9665 22.8499H54.6078C55.7215 22.8499 56.6328 21.9386 56.6328 20.8249V7.48238C56.6328 6.36863 55.7215 5.46863 54.6078 5.46863H30.769C29.6553 5.46863 28.744 6.36863 28.744 7.48238V8.08988C28.744 8.69738 28.2603 9.18113 27.6528 9.18113C27.0453 9.18113 26.5615 8.69738 26.5615 8.08988V7.48238C26.5615 5.16488 28.4515 3.28613 30.769 3.28613H54.6078C56.9253 3.28613 58.8153 5.16488 58.8153 7.48238V20.8136C58.8153 22.9736 57.184 24.7511 55.0915 24.9986L55.1928 28.4299C55.204 28.8461 54.979 29.2399 54.6078 29.4311C54.439 29.5099 54.2703 29.5549 54.0903 29.5549Z" fill="#111934"/>
</svg>
