<svg width="72" height="73" viewBox="0 0 72 73" fill="none" xmlns="http://www.w3.org/2000/svg">
<g clip-path="url(#clip0_8764_594)">
<path d="M71.5505 29.3933L52.9505 10.7933C52.3505 10.1933 51.4505 10.1933 50.8505 10.7933L43.9505 17.6933C43.3505 18.2933 43.3505 19.1933 43.9505 19.7933L44.4005 20.2433C43.5005 20.9933 42.3005 21.4433 41.1005 21.5933C39.7505 21.7433 38.4005 22.1933 37.2005 22.9433L36.3005 22.0433C34.8005 20.5433 32.7005 19.4933 30.4505 19.1933C29.2505 19.0433 28.2005 18.5933 27.1505 17.8433L27.6005 17.3933C28.2005 16.7933 28.2005 15.8933 27.6005 15.2933L20.7005 8.39331C19.8005 7.49331 18.9005 8.09331 18.6005 8.39331L0.45048 26.9933C0.15048 27.2933 -0.29952 28.3433 0.45048 29.0933L7.35048 35.9933C8.10048 36.8933 9.15048 36.2933 9.45048 35.9933L10.0505 35.3933C10.8005 36.2933 11.1005 37.3433 11.2505 38.3933C11.5505 40.6433 12.6005 42.8933 14.1005 44.3933L14.8505 45.1433L13.5005 46.4933C9.30048 51.5933 14.1005 55.0433 15.7505 55.1933C15.4505 55.9433 15.4505 56.6933 15.3005 57.4433C15.1505 58.6433 17.4005 63.4433 22.2005 61.6433C22.3505 62.5433 22.8005 63.4433 23.5505 64.0433C27.0005 67.0433 30.1505 64.6433 30.9005 63.8933L32.2505 62.5433C32.2505 62.5433 35.5505 67.4933 40.2005 64.4933C41.1005 63.8933 41.7005 62.9933 42.0005 62.0933C46.6505 65.2433 49.9505 60.4433 49.9505 59.2433C52.5005 60.2933 54.6005 58.7933 55.3505 58.0433C56.8505 56.5433 57.1505 54.4433 56.5505 52.6433C57.4505 52.3433 62.1005 50.3933 59.5505 44.9933C60.3005 43.7933 60.7505 42.4433 61.0505 40.9433C61.2005 39.7433 61.6505 38.6933 62.4005 37.6433C62.4005 37.6433 63.7505 39.4433 64.9505 38.0933L71.8505 31.1933C72.1505 30.8933 72.1505 29.9933 71.5505 29.3933ZM8.40048 32.6933L3.75048 28.0433L20.2505 11.5433L24.9005 16.1933L8.40048 32.6933ZM15.3005 51.7433C14.5505 50.9933 14.7005 49.4933 15.6005 48.7433L16.9505 47.3933L19.9505 50.3933L18.4505 51.8933C16.9505 52.9433 15.7505 52.0433 15.3005 51.7433ZM19.0505 58.6433C17.4005 57.4433 18.6005 55.7933 19.9505 54.4433C20.1005 54.2933 22.0505 52.4933 22.0505 52.4933L25.0505 55.4933C24.9005 55.3433 21.1505 60.4433 19.0505 58.6433ZM28.5005 61.9433C27.7505 62.6933 26.4005 62.6933 25.5005 61.9433C24.7505 61.1933 24.7505 60.2933 25.2005 59.3933C25.6505 58.9433 27.0005 57.4433 27.0005 57.4433L29.8505 60.2933L28.5005 61.9433ZM56.7005 49.1933C55.5005 50.3933 54.1505 49.6433 53.7005 49.1933L44.5505 40.0433C43.9505 39.4433 43.0505 39.4433 42.4505 40.0433C41.8505 40.6433 41.8505 41.5433 42.4505 42.1433L53.2505 52.9433C54.0005 53.6933 54.0005 55.0433 53.2505 55.9433C52.5005 56.6933 51.1505 56.6933 50.2505 55.9433L36.9005 42.5933C36.3005 41.9933 35.4005 41.9933 34.8005 42.5933C34.2005 43.1933 34.2005 44.0933 34.8005 44.6933L46.5005 56.3933C47.2505 57.1433 47.2505 58.4933 46.5005 59.3933C45.7505 60.1433 44.4005 60.1433 43.5005 59.3933L31.8005 47.6933C31.2005 47.0933 30.3005 47.0933 29.7005 47.6933C29.1005 48.2933 29.1005 49.1933 29.7005 49.7933L38.7005 58.7933C39.6005 59.6933 39.4505 61.0433 38.7005 61.7933C37.8005 62.5433 36.6005 62.5433 35.8505 61.7933L33.3005 59.2433L16.2005 42.2933C15.1505 41.2433 14.4005 39.7433 14.2505 38.2433C13.9505 36.4433 13.2005 34.6433 12.1505 33.2933L25.5005 19.9433C27.0005 21.1433 28.6505 21.8933 30.4505 22.0433C31.9505 22.1933 33.4505 22.9433 34.5005 23.9933L34.9505 24.4433L26.4005 29.8433C21.1505 33.4433 25.6505 40.9433 30.9005 38.5433L43.5005 33.1433L56.4005 46.0433C57.3005 47.0933 57.4505 48.4433 56.7005 49.1933ZM57.7505 40.6433C57.6005 41.3933 57.4505 41.9933 57.1505 42.5933L44.7005 30.1433C44.7005 30.1433 44.1005 29.5433 43.2005 29.9933L29.8505 35.8433C28.8005 36.2933 27.7505 35.8433 27.1505 34.9433C26.7005 34.0433 27.0005 32.8433 27.9005 32.2433L38.1005 26.0933C38.1005 26.0933 40.2005 24.5933 41.7005 24.5933C43.5005 24.5933 45.3005 23.5433 46.6505 22.4933L60.0005 35.8433C58.8005 37.1933 58.0505 38.8433 57.7505 40.6433ZM63.6005 35.2433L47.1005 18.7433L51.7505 14.0933L68.2505 30.5933L63.6005 35.2433Z" fill="#111934"/>
</g>
<defs>
<clipPath id="clip0_8764_594">
<rect width="72" height="72" fill="white" transform="translate(0 0.743164)"/>
</clipPath>
</defs>
</svg>
