<svg width="72" height="73" viewBox="0 0 72 73" fill="none" xmlns="http://www.w3.org/2000/svg">
<path d="M68.958 13.1687L36.333 3.04366C36.1159 2.97503 35.8841 2.97503 35.6659 3.04366L3.04088 13.1687C2.57063 13.3149 2.25 13.7503 2.25 14.243V23.243C2.25 23.8652 2.754 24.368 3.375 24.368H5.625V59.9023L2.57962 62.9477C2.36812 63.158 2.25 63.4438 2.25 63.743V69.368C2.25 69.9902 2.754 70.493 3.375 70.493H68.625C69.246 70.493 69.75 69.9902 69.75 69.368V63.743C69.75 63.4438 69.6319 63.158 69.4204 62.9477L66.375 59.9023V24.368H68.625C69.246 24.368 69.75 23.8652 69.75 23.243V14.243C69.75 13.7503 69.4294 13.3149 68.958 13.1687ZM22.5 24.368V59.243H14.625V24.368H22.5ZM40.5 24.368V59.243H31.5V24.368H40.5ZM57.375 24.368V59.243H49.5V24.368H57.375ZM47.25 59.243H42.75V24.368H47.25V59.243ZM29.25 59.243H24.75V24.368H29.25V59.243ZM12.375 59.243H7.875V24.368H12.375V59.243ZM67.5 68.243H4.5V64.2088L7.21575 61.493H13.5H23.625H30.375H41.625H48.375H58.5H64.7842L67.5 64.2088V68.243ZM64.125 59.243H59.625V24.368H64.125V59.243ZM65.25 22.118H58.5H48.375H41.625H30.375H23.625H13.5H6.75H4.5V19.868H11.25V17.618H4.5V15.071L36 5.29591L67.5 15.071V17.618H60.75V19.868H67.5V22.118H65.25Z" fill="#111934"/>
<path d="M36 8.61816C32.8984 8.61816 30.375 11.1415 30.375 14.2432C30.375 17.3448 32.8984 19.8682 36 19.8682C39.1016 19.8682 41.625 17.3448 41.625 14.2432C41.625 11.1415 39.1016 8.61816 36 8.61816ZM36 17.6182C34.1393 17.6182 32.625 16.1039 32.625 14.2432C32.625 12.3824 34.1393 10.8682 36 10.8682C37.8608 10.8682 39.375 12.3824 39.375 14.2432C39.375 16.1039 37.8608 17.6182 36 17.6182Z" fill="#111934"/>
</svg>
