<svg width="63" height="62" viewBox="0 0 63 62" fill="none" xmlns="http://www.w3.org/2000/svg">
<g clip-path="url(#clip0_8764_1153)">
<path d="M43.9904 19.4576C45.0003 18.4478 46.6382 18.4478 47.648 19.4576C48.6578 20.4677 48.6578 22.1057 47.648 23.1155L28.2228 42.5414C27.2127 43.5512 25.5747 43.5512 24.5649 42.5414L14.852 32.8284C13.8422 31.8186 13.8422 30.1807 14.852 29.1709C15.8622 28.1607 17.5001 28.1607 18.5099 29.1709L26.3939 37.0549L43.9904 19.4576ZM31.2498 0C39.809 0 47.5598 3.47037 53.1697 9.08028C58.7796 14.6898 62.25 22.441 62.25 30.9998C62.25 39.56 58.78 47.3098 53.1697 52.9197C47.5598 58.5296 39.809 62 31.2498 62C22.69 62 14.9398 58.53 9.33028 52.9197C3.71968 47.3098 0.25 39.56 0.25 30.9998C0.25 22.441 3.72037 14.6898 9.33028 9.08028C14.9398 3.46968 22.69 0 31.2498 0ZM49.5122 12.7378C44.8389 8.06489 38.3819 5.17419 31.2498 5.17419C24.1174 5.17419 17.6604 8.06489 12.9878 12.7378C8.31489 17.4108 5.42419 23.8681 5.42419 30.9998C5.42419 38.1326 8.31489 44.5896 12.9878 49.2622C17.6604 53.9351 24.1174 56.8255 31.2498 56.8255C38.3819 56.8255 44.8389 53.9351 49.5122 49.2622C54.1851 44.5896 57.0755 38.1326 57.0755 30.9998C57.0755 23.8681 54.1851 17.4108 49.5122 12.7378Z" fill="#EA6A6A"/>
</g>
<defs>
<clipPath id="clip0_8764_1153">
<rect width="62" height="62" fill="white" transform="translate(0.25)"/>
</clipPath>
</defs>
</svg>
