<svg width="42" height="43" viewBox="0 0 42 43" fill="none" xmlns="http://www.w3.org/2000/svg">
<path d="M31.8413 39.2263C33.6073 39.2263 35.301 38.527 36.5498 37.2822C37.7985 36.0375 38.5001 34.3492 38.5001 32.5889C38.5029 31.978 38.4175 31.37 38.2463 30.7834C38.2114 30.6683 38.153 30.5616 38.0746 30.47C37.9963 30.3784 37.8999 30.304 37.7913 30.2514L30.3101 26.5271C30.1459 26.4433 29.9593 26.4133 29.777 26.4415C29.5947 26.4697 29.4261 26.5546 29.2951 26.6841L26.4601 29.51C23.3227 28.6026 20.4664 26.9194 18.1565 24.6169C15.8465 22.3143 14.1579 19.4672 13.2476 16.3399L16.0826 13.514C16.2125 13.3834 16.2976 13.2152 16.3259 13.0335C16.3542 12.8518 16.3242 12.6659 16.2401 12.5022L12.5038 5.04493C12.4511 4.93672 12.3764 4.84057 12.2845 4.76252C12.1927 4.68446 12.0856 4.6262 11.9701 4.59139C11.3817 4.42079 10.7716 4.3356 10.1588 4.33845C8.39282 4.33845 6.69914 5.03775 5.45038 6.2825C4.20162 7.52726 3.50008 9.21551 3.50008 10.9759C3.49123 14.6869 4.22054 18.3629 5.64584 21.7912C7.07114 25.2195 9.16415 28.3322 11.8038 30.9492C14.4292 33.5804 17.5519 35.6667 20.9912 37.0874C24.4306 38.5081 28.1184 39.2351 31.8413 39.2263ZM10.1588 6.08284C10.4792 6.08275 10.7987 6.11489 11.1126 6.17878L14.3938 12.7203L11.6463 15.459C11.5481 15.571 11.4766 15.7037 11.4372 15.8472C11.3978 15.9907 11.3916 16.1413 11.4188 16.2875C11.4337 16.3919 11.4601 16.4943 11.4976 16.5928C12.4741 20.1 14.3468 23.2946 16.9325 25.8644C19.5183 28.4343 22.7288 30.2915 26.2501 31.2544C26.361 31.2937 26.4752 31.3228 26.5913 31.3416C26.7332 31.3712 26.8803 31.3652 27.0193 31.3241C27.1583 31.283 27.2848 31.2081 27.3876 31.1062L30.1351 28.3675L36.6976 31.6382C36.747 31.9525 36.7646 32.271 36.7501 32.5889C36.7478 33.8859 36.2299 35.1291 35.3098 36.0462C34.3897 36.9633 33.1425 37.4796 31.8413 37.4819C28.3484 37.4913 24.8883 36.8092 21.6619 35.4752C18.4355 34.1412 15.507 32.1818 13.0463 29.7106C10.5673 27.2578 8.60155 24.3387 7.26323 21.1226C5.92491 17.9066 5.24062 14.4576 5.25008 10.9759C5.25239 9.67886 5.77031 8.43564 6.69037 7.51852C7.61044 6.6014 8.85766 6.08515 10.1588 6.08284Z" fill="black"/>
<path d="M21 15.6757C22.6245 15.6757 24.1824 16.3189 25.331 17.4639C26.4797 18.6089 27.125 20.1618 27.125 21.7811C27.125 22.0124 27.2172 22.2342 27.3813 22.3978C27.5454 22.5614 27.7679 22.6533 28 22.6533C28.2321 22.6533 28.4546 22.5614 28.6187 22.3978C28.7828 22.2342 28.875 22.0124 28.875 21.7811C28.875 19.6992 28.0453 17.7026 26.5685 16.2305C25.0916 14.7583 23.0886 13.9313 21 13.9313C20.7679 13.9313 20.5454 14.0232 20.3813 14.1868C20.2172 14.3503 20.125 14.5722 20.125 14.8035C20.125 15.0348 20.2172 15.2567 20.3813 15.4202C20.5454 15.5838 20.7679 15.6757 21 15.6757ZM21 7.82594C24.713 7.82594 28.274 9.29621 30.8995 11.9133C33.525 14.5304 35 18.0799 35 21.7811C35 22.0124 35.0922 22.2342 35.2563 22.3978C35.4204 22.5614 35.6429 22.6533 35.875 22.6533C36.1071 22.6533 36.3296 22.5614 36.4937 22.3978C36.6578 22.2342 36.75 22.0124 36.75 21.7811C36.75 17.6173 35.0906 13.6241 32.1369 10.6798C29.1832 7.7356 25.1772 6.08154 21 6.08154C20.7679 6.08154 20.5454 6.17343 20.3813 6.337C20.2172 6.50057 20.125 6.72242 20.125 6.95374C20.125 7.18506 20.2172 7.40691 20.3813 7.57048C20.5454 7.73404 20.7679 7.82594 21 7.82594Z" fill="black"/>
</svg>
