<svg width="44" height="40" viewBox="0 0 44 40" fill="none" xmlns="http://www.w3.org/2000/svg">
<path d="M14.0172 16.8579C14.1432 16.7442 14.2931 16.6539 14.4583 16.5923C14.6235 16.5307 14.8007 16.499 14.9797 16.499C15.1587 16.499 15.3358 16.5307 15.501 16.5923C15.6662 16.6539 15.8162 16.7442 15.9422 16.8579L21.758 22.0747L27.5737 16.8579C27.829 16.6294 28.1752 16.5011 28.5363 16.5011C28.8973 16.5011 29.2435 16.6294 29.4988 16.8579C29.754 17.0863 29.8975 17.3962 29.8975 17.7193C29.8975 18.0423 29.754 18.3522 29.4988 18.5806L22.7205 24.6467C22.5945 24.7604 22.4445 24.8507 22.2793 24.9122C22.1141 24.9738 21.9369 25.0056 21.758 25.0056C21.579 25.0056 21.4018 24.9738 21.2366 24.9122C21.0714 24.8507 20.9215 24.7604 20.7955 24.6467L14.0172 18.5806C13.8901 18.4679 13.7893 18.3337 13.7204 18.1858C13.6516 18.038 13.6162 17.8794 13.6162 17.7193C13.6162 17.5591 13.6516 17.4005 13.7204 17.2527C13.7893 17.1049 13.8901 16.9707 14.0172 16.8579Z" fill="#898B89"/>
</svg>
