<svg width="42" height="43" viewBox="0 0 42 43" fill="none" xmlns="http://www.w3.org/2000/svg">
<path d="M20.9999 11.0912C16.6506 11.0912 13.1249 14.6056 13.1249 18.941C13.1249 23.2763 16.6506 26.7907 20.9999 26.7907C25.3471 26.786 28.8702 23.2743 28.8749 18.941C28.8749 14.6056 25.3491 11.0912 20.9999 11.0912ZM20.9999 25.0463C17.6171 25.0463 14.8749 22.3128 14.8749 18.941C14.8749 15.5691 17.6171 12.8356 20.9999 12.8356C24.3809 12.8396 27.1208 15.5708 27.1249 18.941C27.1249 22.3128 24.3826 25.0463 20.9999 25.0463ZM31.5187 8.45586C25.7093 2.6651 16.2904 2.6651 10.4811 8.45586C4.67168 14.2466 4.67168 23.6353 10.4811 29.426L20.3812 39.2928C20.545 39.4566 20.7677 39.5486 20.9999 39.5483C21.232 39.5486 21.4547 39.4566 21.6185 39.2928L31.5187 29.426C37.328 23.6353 37.328 14.2466 31.5187 8.45586ZM30.2813 28.1927L20.9999 37.4428L11.7184 28.1927C6.59237 23.0831 6.59237 14.7988 11.7184 9.6892C16.8443 4.57963 25.1554 4.57963 30.2813 9.6892C35.4073 14.7988 35.4073 23.0831 30.2813 28.1927Z" fill="black"/>
</svg>
