<svg width="42" height="42" viewBox="0 0 42 42" fill="none" xmlns="http://www.w3.org/2000/svg">
<path d="M36.505 6.7832H5.49805C4.41062 6.78444 3.3681 7.21692 2.59917 7.98576C1.83025 8.7546 1.39772 9.79702 1.39648 10.8843V31.1111C1.39772 32.1984 1.83025 33.2408 2.59917 34.0096C3.3681 34.7785 4.41062 35.211 5.49805 35.2122H36.5049C37.5923 35.211 38.6348 34.7785 39.4037 34.0096C40.1727 33.2408 40.6052 32.1984 40.6064 31.1111V10.8843C40.6052 9.79702 40.1727 8.75459 39.4038 7.98574C38.6349 7.21689 37.5924 6.78442 36.505 6.7832ZM29.2124 20.9921L38.9659 13.3379V30.4592L29.2124 20.9921ZM5.49805 8.42365H36.5049C37.1573 8.42439 37.7828 8.68388 38.2442 9.14518C38.7056 9.60649 38.9651 10.2319 38.9658 10.8843V11.2526L23.1822 23.6395C22.6051 24.0899 21.8939 24.3343 21.1618 24.3338C20.4297 24.3332 19.7188 24.0876 19.1425 23.6362L3.03711 11.2495V10.8843C3.03785 10.2319 3.29736 9.60649 3.75872 9.14518C4.22007 8.68388 4.84559 8.42439 5.49805 8.42365ZM13.0809 21.0436L3.03711 30.4922V13.3191L13.0809 21.0436ZM36.505 33.5717H5.49805C5.07792 33.5715 4.66484 33.4637 4.29814 33.2587C3.93144 33.0537 3.62333 32.7582 3.40313 32.4005L14.3981 22.0574L18.1373 24.9331C19.002 25.6085 20.0678 25.9753 21.1651 25.975C22.2624 25.9747 23.3281 25.6074 24.1925 24.9316L27.91 22.0148L38.6041 32.3939C38.3843 32.7535 38.0758 33.0506 37.7083 33.2568C37.3407 33.4631 36.9264 33.5715 36.505 33.5717Z" fill="black"/>
</svg>
