<svg width="63" height="62" viewBox="0 0 63 62" fill="none" xmlns="http://www.w3.org/2000/svg">
<path d="M31.25 32.9375C22.7037 32.9375 15.75 25.9838 15.75 17.4375C15.75 8.89119 22.7037 1.9375 31.25 1.9375C39.7963 1.9375 46.75 8.89119 46.75 17.4375C46.75 25.9838 39.7963 32.9375 31.25 32.9375ZM31.25 5.8125C24.8388 5.8125 19.625 11.0263 19.625 17.4375C19.625 23.8487 24.8388 29.0625 31.25 29.0625C37.6612 29.0625 42.875 23.8487 42.875 17.4375C42.875 11.0263 37.6612 5.8125 31.25 5.8125Z" fill="#EA6A6A"/>
<path d="M32.025 25.5748H30.475C29.389 25.5705 28.3332 25.2171 27.4634 24.5668C26.5937 23.9165 25.9561 23.0037 25.6448 21.9633C25.5663 21.7174 25.5377 21.4583 25.5607 21.2012C25.5837 20.9441 25.6578 20.6942 25.7788 20.4661C25.8997 20.2381 26.065 20.0365 26.2649 19.8732C26.4648 19.71 26.6954 19.5883 26.943 19.5153C27.1906 19.4424 27.4503 19.4197 27.7068 19.4485C27.9633 19.4773 28.2115 19.5571 28.4367 19.6832C28.662 19.8092 28.8598 19.979 29.0185 20.1826C29.1772 20.3862 29.2936 20.6194 29.3609 20.8686C29.5062 21.3588 29.9654 21.7017 30.475 21.7017H32.025C32.3336 21.7017 32.6295 21.5792 32.8477 21.361C33.0659 21.1428 33.1885 20.8468 33.1885 20.5383C33.1885 20.2297 33.0659 19.9338 32.8477 19.7156C32.6295 19.4974 32.3336 19.3748 32.025 19.3748H30.475C27.6966 19.3748 25.4375 17.1137 25.4375 14.3373C25.4375 11.5609 27.6966 9.2998 30.475 9.2998H32.025C34.1969 9.2998 36.1151 10.6832 36.8029 12.7447C36.8873 12.987 36.9228 13.2436 36.9072 13.4998C36.8916 13.7559 36.8254 14.0064 36.7122 14.2367C36.599 14.467 36.4413 14.6725 36.248 14.8413C36.0548 15.0101 35.83 15.1389 35.5866 15.2201C35.3431 15.3013 35.086 15.3334 34.8301 15.3145C34.5742 15.2955 34.3247 15.2259 34.0959 15.1097C33.8671 14.9935 33.6637 14.833 33.4974 14.6376C33.3312 14.4421 33.2054 14.2156 33.1274 13.9711C33.0511 13.7391 32.9033 13.5372 32.7053 13.3942C32.5074 13.2512 32.2692 13.1744 32.025 13.1748H30.475C30.1667 13.1748 29.871 13.2973 29.653 13.5153C29.435 13.7333 29.3125 14.029 29.3125 14.3373C29.3125 14.6456 29.435 14.9413 29.653 15.1593C29.871 15.3773 30.1667 15.4998 30.475 15.4998H32.025C34.8034 15.4998 37.0625 17.7609 37.0625 20.5373C37.0625 23.3137 34.8034 25.5748 32.025 25.5748Z" fill="#EA6A6A"/>
<path d="M31.25 11.6252C30.7249 11.6252 30.2406 11.4121 29.8744 11.0633C29.7969 10.9664 29.7 10.8696 29.6419 10.7533C29.5651 10.6545 29.506 10.543 29.4675 10.4239C29.4118 10.3139 29.372 10.1965 29.3493 10.0752C29.3319 9.93957 29.3125 9.82332 29.3125 9.6877C29.3125 9.18395 29.5237 8.6802 29.8744 8.31207C30.5912 7.5952 31.8894 7.5952 32.6256 8.31207C32.9744 8.6802 33.1875 9.18395 33.1875 9.6877C33.1875 9.82332 33.1681 9.93957 33.1468 10.0752C33.1266 10.1968 33.0874 10.3145 33.0306 10.4239C32.9912 10.5427 32.9323 10.654 32.8562 10.7533C32.7787 10.8696 32.7012 10.9664 32.6237 11.0633C32.2575 11.4121 31.7537 11.6252 31.25 11.6252ZM31.25 27.1252C30.7249 27.1252 30.2406 26.9121 29.8744 26.5633C29.7969 26.4664 29.7 26.3696 29.6419 26.2533C29.5651 26.1545 29.506 26.043 29.4675 25.9239C29.4118 25.8139 29.372 25.6965 29.3493 25.5752C29.3319 25.4396 29.3125 25.3233 29.3125 25.1877C29.3125 24.6839 29.5237 24.1802 29.8744 23.8121C30.5912 23.0952 31.8894 23.0952 32.6256 23.8121C32.9744 24.1802 33.1875 24.6839 33.1875 25.1877C33.1875 25.3233 33.1681 25.4396 33.1468 25.5752C33.1266 25.6968 33.0874 25.8145 33.0306 25.9239C32.9912 26.0427 32.9323 26.154 32.8562 26.2533C32.7787 26.3696 32.7012 26.4664 32.6237 26.5633C32.2575 26.9121 31.7537 27.1252 31.25 27.1252ZM35.125 60.0627H4.125C3.61114 60.0627 3.11833 59.8586 2.75498 59.4952C2.39163 59.1319 2.1875 58.639 2.1875 58.1252V40.6877C2.1875 40.1743 2.39094 39.6802 2.75519 39.3179C3.20856 38.8626 7.32769 34.8752 11.875 34.8752C15.6415 34.8752 20.5007 37.7214 22.1341 38.7502H31.25C32.0981 38.7515 32.9356 38.9381 33.704 39.2969C34.4724 39.6557 35.1531 40.1782 35.6984 40.8276C36.2438 41.4771 36.6406 42.2378 36.8612 43.0567C37.0818 43.8756 37.1207 44.7328 36.9753 45.5683L52.2641 39.1978C53.1472 38.8288 54.1079 38.6841 55.0605 38.7763C56.0131 38.8686 56.9281 39.1951 57.724 39.7267C58.521 40.2566 59.1745 40.9755 59.6262 41.8193C60.0778 42.6631 60.3136 43.6056 60.3125 44.5627C60.3126 44.9014 60.2239 45.2342 60.0553 45.5279C59.8867 45.8216 59.644 46.066 59.3515 46.2367L36.1015 59.7992C35.805 59.9717 35.4681 60.0626 35.125 60.0627ZM6.0625 56.1877H34.5999L56.1837 43.5978C56.0332 43.3383 55.825 43.1169 55.5753 42.9507C55.3111 42.7713 55.006 42.6611 54.6882 42.6303C54.3703 42.5995 54.0497 42.649 53.756 42.7744L35.8729 50.226C35.6358 50.3244 35.3817 50.3751 35.125 50.3752H19.625C19.1111 50.3752 18.6183 50.1711 18.255 49.8077C17.8916 49.4444 17.6875 48.9515 17.6875 48.4377C17.6875 47.9238 17.8916 47.431 18.255 47.0677C18.6183 46.7043 19.1111 46.5002 19.625 46.5002H31.25C31.7489 46.4779 32.2199 46.264 32.565 45.9031C32.9102 45.5422 33.1028 45.0621 33.1028 44.5627C33.1028 44.0633 32.9102 43.5832 32.565 43.2223C32.2199 42.8614 31.7489 42.6475 31.25 42.6252H21.5625C21.1808 42.6252 20.8049 42.5109 20.4872 42.3016C19.005 41.3135 14.5623 38.7502 11.875 38.7502C9.76312 38.7502 7.32769 40.4552 6.0625 41.5383V56.1877Z" fill="#EA6A6A"/>
</svg>
