<svg width="63" height="62" viewBox="0 0 63 62" fill="none" xmlns="http://www.w3.org/2000/svg">
<path d="M55.0003 54.25C54.3152 54.25 53.6581 53.9778 53.1736 53.4934C52.6892 53.0089 52.417 52.3518 52.417 51.6667V41.3333H42.0837C41.3985 41.3333 40.7414 41.0612 40.257 40.5767C39.7725 40.0922 39.5003 39.4351 39.5003 38.75C39.5003 38.0649 39.7725 37.4078 40.257 36.9233C40.7414 36.4388 41.3985 36.1667 42.0837 36.1667H55.0003C55.6855 36.1667 56.3426 36.4388 56.827 36.9233C57.3115 37.4078 57.5837 38.0649 57.5837 38.75V51.6667C57.5837 52.3518 57.3115 53.0089 56.827 53.4934C56.3426 53.9778 55.6855 54.25 55.0003 54.25ZM21.417 25.8333H8.50033C7.81518 25.8333 7.1581 25.5612 6.67363 25.0767C6.18916 24.5922 5.91699 23.9351 5.91699 23.25V10.3333C5.91699 9.64819 6.18916 8.99111 6.67363 8.50664C7.1581 8.02217 7.81518 7.75 8.50033 7.75C9.18547 7.75 9.84255 8.02217 10.327 8.50664C10.8115 8.99111 11.0837 9.64819 11.0837 10.3333V20.6667H21.417C22.1021 20.6667 22.7592 20.9388 23.2437 21.4233C23.7282 21.9078 24.0003 22.5649 24.0003 23.25C24.0003 23.9351 23.7282 24.5922 23.2437 25.0767C22.7592 25.5612 22.1021 25.8333 21.417 25.8333Z" fill="#EA6A6A"/>
<path d="M31.7496 56.8336C25.3939 56.8347 19.2608 54.4928 14.5234 50.2558C9.78596 46.0189 6.77673 40.1842 6.07125 33.8677C6.03393 33.5285 6.0638 33.1852 6.15915 32.8575C6.25449 32.5298 6.41345 32.2241 6.62695 31.9578C7.05813 31.42 7.68527 31.0756 8.37041 31.0002C9.05556 30.9249 9.74258 31.1248 10.2803 31.5559C10.8181 31.9871 11.1625 32.6142 11.2379 33.2994C11.7485 37.9564 13.8263 42.3017 17.1305 45.6229C20.4347 48.9441 24.7693 51.0441 29.4236 51.5786C34.0779 52.1131 38.7757 51.0504 42.7468 48.5646C46.7179 46.0789 49.7266 42.3177 51.2796 37.8977C51.3764 37.5579 51.542 37.2417 51.7659 36.9684C51.9899 36.6951 52.2675 36.4707 52.5816 36.309C52.8958 36.1473 53.2397 36.0518 53.5922 36.0283C53.9448 36.0048 54.2984 36.0539 54.6312 36.1725C54.964 36.2911 55.2689 36.4767 55.5271 36.7178C55.7854 36.959 55.9914 37.2505 56.1324 37.5745C56.2735 37.8984 56.3466 38.2478 56.3473 38.6011C56.3479 38.9544 56.2761 39.3041 56.1362 39.6286C54.3509 44.667 51.0466 49.0275 46.6788 52.109C42.3111 55.1905 37.0949 56.8412 31.7496 56.8336ZM54.8446 31.0002C54.2059 31.0041 53.5885 30.7713 53.1114 30.3467C52.6344 29.9221 52.3315 29.3358 52.2612 28.7011C51.7278 24.0664 49.6419 19.7485 46.3428 16.4499C43.0438 13.1512 38.7257 11.0658 34.091 10.5329C29.4562 9.99993 24.7775 11.0508 20.8159 13.5146C16.8542 15.9784 13.8427 19.7101 12.2712 24.1027C12.1744 24.4425 12.0089 24.7588 11.7849 25.0321C11.561 25.3053 11.2833 25.5297 10.9692 25.6914C10.6551 25.8531 10.3111 25.9487 9.95858 25.9722C9.60605 25.9956 9.25245 25.9466 8.91965 25.828C8.58684 25.7094 8.2819 25.5237 8.02368 25.2826C7.76547 25.0415 7.55945 24.7499 7.41839 24.426C7.27732 24.1021 7.2042 23.7526 7.20355 23.3993C7.20289 23.046 7.27472 22.6963 7.41458 22.3719C9.35964 16.8541 13.1201 12.1599 18.0805 9.05767C23.0409 5.95542 28.9074 4.62883 34.72 5.29501C40.5325 5.96118 45.9468 8.58068 50.0767 12.7248C54.2066 16.8689 56.8075 22.2921 57.4537 28.1069C57.5264 28.7847 57.3282 29.4637 56.9024 29.996C56.4765 30.5282 55.8576 30.8706 55.1804 30.9486L54.8446 31.0002Z" fill="#EA6A6A"/>
</svg>
