<svg width="60" height="61" viewBox="0 0 60 61" fill="none" xmlns="http://www.w3.org/2000/svg">
<circle cx="30" cy="30" r="30" transform="matrix(-1 0 0 1 60 0.241211)" fill="#D9D9D9" fill-opacity="0.2"/>
<path fill-rule="evenodd" clip-rule="evenodd" d="M35.5668 40.3715C35.0882 40.7897 34.3141 40.7897 33.8367 40.3715L23.717 31.5113C23.4904 31.316 23.3101 31.081 23.1868 30.8205C23.0636 30.5599 23 30.2794 23 29.9959C23 29.7124 23.0636 29.4318 23.1868 29.1713C23.3101 28.9108 23.4904 28.6757 23.717 28.4804L33.91 19.5548C34.1413 19.3553 34.4477 19.2432 34.7668 19.2412C35.0859 19.2392 35.394 19.3475 35.6283 19.5441C35.7444 19.6412 35.8373 19.7588 35.9012 19.8898C35.9651 20.0207 35.9987 20.1622 36 20.3054C36.0012 20.4487 35.97 20.5906 35.9083 20.7224C35.8466 20.8543 35.7557 20.9732 35.6413 21.0719L26.3122 29.2384C26.1988 29.3361 26.1086 29.4536 26.0469 29.5839C25.9852 29.7143 25.9534 29.8546 25.9534 29.9964C25.9534 30.1382 25.9852 30.2786 26.0469 30.4089C26.1086 30.5392 26.1988 30.6568 26.3122 30.7544L35.5668 38.8566C35.6802 38.9542 35.7704 39.0716 35.8321 39.2018C35.8938 39.3321 35.9256 39.4723 35.9256 39.6141C35.9256 39.7558 35.8938 39.896 35.8321 40.0263C35.7704 40.1565 35.6802 40.274 35.5668 40.3715Z" fill="black"/>
</svg>
