<svg width="63" height="63" viewBox="0 0 63 63" fill="none" xmlns="http://www.w3.org/2000/svg">
<path d="M41.3542 33.4097L34.85 29.6976V16.1397C34.85 15.3267 34.5234 14.547 33.942 13.9721C33.3607 13.3972 32.5722 13.0742 31.75 13.0742C30.9278 13.0742 30.1393 13.3972 29.558 13.9721C28.9766 14.547 28.65 15.3267 28.65 16.1397V31.4668C28.6499 32.005 28.793 32.5338 29.0651 32.9999C29.3372 33.466 29.7286 33.8531 30.2 34.1221L38.2542 38.7203C38.6069 38.9218 38.9962 39.0526 39.4 39.1053C39.8038 39.158 40.2142 39.1315 40.6076 39.0273C41.001 38.9232 41.3699 38.7433 41.693 38.4982C42.0161 38.253 42.2873 37.9473 42.4909 37.5985C42.6945 37.2496 42.8266 36.8646 42.8797 36.4653C42.9327 36.0659 42.9057 35.6602 42.8002 35.2712C42.6946 34.8822 42.5126 34.5176 42.2645 34.1982C42.0164 33.8788 41.7071 33.6108 41.3542 33.4097ZM31.75 0.8125C25.6188 0.8125 19.6253 2.61034 14.5273 5.97868C9.42941 9.34702 5.45606 14.1346 3.10975 19.7359C0.763432 25.3373 0.149529 31.5008 1.34567 37.4472C2.54181 43.3935 5.49428 48.8556 9.8297 53.1427C14.1651 57.4298 19.6888 60.3493 25.7022 61.5321C31.7156 62.7149 37.9487 62.1079 43.6132 59.7877C49.2777 57.4676 54.1192 53.5385 57.5256 48.4974C60.9319 43.4564 62.75 37.5297 62.75 31.4668C62.7409 23.3396 59.4719 15.5478 53.6602 9.80092C47.8486 4.05408 39.9689 0.821539 31.75 0.8125ZM31.75 55.9903C26.845 55.9903 22.0502 54.552 17.9719 51.8573C13.8935 49.1626 10.7149 45.3326 8.8378 40.8515C6.96075 36.3705 6.46963 31.4396 7.42654 26.6825C8.38345 21.9254 10.7454 17.5558 14.2138 14.1261C17.6821 10.6965 22.101 8.36082 26.9118 7.41458C31.7225 6.46833 36.709 6.95398 41.2406 8.8101C45.7722 10.6662 49.6454 13.8095 52.3704 17.8423C55.0955 21.8752 56.55 26.6165 56.55 31.4668C56.5425 37.9686 53.9272 44.2019 49.2779 48.7993C44.6287 53.3967 38.3251 55.9828 31.75 55.9903Z" fill="#EA6A6A"/>
</svg>
