<svg width="63" height="62" viewBox="0 0 63 62" fill="none" xmlns="http://www.w3.org/2000/svg">
<path d="M31.25 24.025C36.8052 24.025 41.325 19.5052 41.325 13.95C41.325 8.3948 36.8052 3.875 31.25 3.875C25.6948 3.875 21.175 8.3948 21.175 13.95C21.175 19.5052 25.6948 24.025 31.25 24.025ZM31.25 5.425C35.9504 5.425 39.775 9.24962 39.775 13.95C39.775 18.6504 35.9504 22.475 31.25 22.475C26.5496 22.475 22.725 18.6504 22.725 13.95C22.725 9.24962 26.5496 5.425 31.25 5.425ZM56.05 48.7754C56.05 47.6548 55.7477 46.5527 55.1773 45.5901L45.7929 29.7538C45.0356 28.4831 43.962 27.4302 42.6767 26.6979C41.3914 25.9655 39.9383 25.5787 38.459 25.575H24.0409C22.5616 25.5788 21.1085 25.9657 19.8232 26.6982C18.5379 27.4307 17.4643 28.4837 16.7071 29.7546L7.32265 45.5894C6.5774 46.8445 6.29641 48.3215 6.52869 49.7626C6.76097 51.2037 7.49178 52.5176 8.59365 53.475H4.125V58.125H58.375V53.475H53.9063C54.5789 52.8904 55.1182 52.1685 55.488 51.3578C55.8578 50.5471 56.0494 49.6665 56.05 48.7754ZM8 48.7754C8 47.933 8.22708 47.1037 8.65642 46.3799L18.0409 30.5443C18.6604 29.5046 19.5388 28.6431 20.5903 28.0439C21.6418 27.4447 22.8307 27.1281 24.0409 27.125H38.459C40.9104 27.125 43.2098 28.4347 44.4591 30.5443L53.8436 46.3799C54.2729 47.1037 54.5 47.933 54.5 48.7746C54.4988 50.0207 54.0033 51.2155 53.1222 52.0967C52.2411 52.9779 51.0465 53.4736 49.8004 53.475H45.8324C45.9192 53.2316 45.975 52.9728 45.975 52.7C45.9736 52.2207 45.8238 51.7536 45.5463 51.3629C45.2688 50.9721 44.8771 50.6768 44.425 50.5176V49.6H49.85C49.9882 49.6 50.1238 49.563 50.2429 49.4929C50.362 49.4228 50.4602 49.3222 50.5273 49.2014C50.5944 49.0806 50.628 48.9441 50.6246 48.806C50.6212 48.6678 50.5809 48.5331 50.508 48.4158L44.425 38.6485V34.1H18.075V38.6485L11.992 48.4158C11.9191 48.5331 11.8788 48.6678 11.8754 48.806C11.872 48.9441 11.9056 49.0806 11.9727 49.2014C12.0398 49.3222 12.138 49.4228 12.2571 49.4929C12.3762 49.563 12.5118 49.6 12.65 49.6H18.075V50.5176C17.6229 50.6768 17.2312 50.9721 16.9537 51.3629C16.6762 51.7536 16.5264 52.2207 16.525 52.7C16.525 52.9728 16.5808 53.2316 16.6676 53.475H12.6996C11.4536 53.4736 10.2591 52.978 9.37807 52.0969C8.49703 51.2159 8.00144 50.0214 8 48.7754ZM18.075 52.7C18.075 52.2722 18.423 51.925 18.85 51.925H43.65C43.8495 51.9339 44.038 52.0195 44.176 52.1638C44.3141 52.3082 44.3911 52.5003 44.3911 52.7C44.3911 52.8997 44.3141 53.0918 44.176 53.2362C44.038 53.3805 43.8495 53.4661 43.65 53.475H18.85C18.423 53.475 18.075 53.1278 18.075 52.7ZM44.425 41.5795L48.455 48.05H44.425V41.5795ZM42.875 50.375H19.625V35.65H42.875V50.375ZM18.075 48.05H14.045L18.075 41.5795V48.05ZM56.825 55.025V56.575H5.675V55.025H56.825Z" fill="#EA6A6A"/>
</svg>
